<svg width="21" height="19" viewBox="0 0 21 19" fill="none" xmlns="http://www.w3.org/2000/svg">
<path d="M9.47852 17.0751L9.47743 17.0742C6.75843 14.6428 4.56296 12.6779 3.0382 10.8396C1.52173 9.01135 0.75 7.40196 0.75 5.69482C0.75 2.92979 2.94529 0.75 5.775 0.75C7.3788 0.75 8.92688 1.48987 9.93236 2.65422L10.5 3.31155L11.0676 2.65422C12.0731 1.48986 13.6212 0.75 15.225 0.75C18.0547 0.75 20.25 2.92979 20.25 5.69482C20.25 7.40197 19.4783 9.0114 17.9616 10.8411C16.4369 12.6806 14.2417 14.6478 11.523 17.0841C11.5228 17.0843 11.5226 17.0845 11.5224 17.0847L11.522 17.0851L10.5019 17.9938L9.47852 17.0751Z" stroke="black" stroke-width="1.5"/>
</svg>
