<svg width="27" height="28" viewBox="0 0 27 28" fill="none" xmlns="http://www.w3.org/2000/svg">
<path d="M13.658 5.15631L13.4999 5.1036L13.3418 5.15631L11.2922 5.83949L13.4999 1.42419L15.7075 5.83949L13.658 5.15631Z" stroke="black"/>
<path d="M1 17.4966C3.04011 12.4342 7.86844 8.87598 13.4999 8.87598C19.1313 8.87598 23.9597 12.4342 25.9998 17.4966" stroke="black"/>
<path d="M1 17.4966C3.04011 12.4342 7.86844 8.87598 13.4999 8.87598C19.1313 8.87598 23.9597 12.4342 25.9998 17.4966" stroke="black"/>
<path d="M3.58643 17.4961C5.20444 13.4462 9.03381 10.5996 13.5001 10.5996C17.9665 10.5996 21.7958 13.4462 23.4138 17.4961" stroke="black"/>
<path fill-rule="evenodd" clip-rule="evenodd" d="M13.0688 26.1167L13.0688 5.42723L13.9309 5.42723L13.9309 26.1167L13.0688 26.1167Z" fill="black"/>
<path d="M15.7817 11.2593H16.6945V22.1365L15.7817 23.1253V11.2593Z" fill="black"/>
<path d="M16.5171 26.7764L16.5171 27.6384L10.4827 27.6384L10.4827 26.7764L16.5171 26.7764Z" fill="black"/>
<path d="M21.624 14.4639L22.3465 14.9884L13.5003 26.9023L13.1621 26.1193L21.624 14.4639Z" fill="black"/>
<path d="M5.29346 14.4639L4.57094 14.9884L13.4991 26.9023L13.7554 26.1193L5.29346 14.4639Z" fill="black"/>
<path d="M10.3052 11.2593H11.2179V23.1253L10.3052 22.1365V11.2593Z" fill="black"/>
</svg>
