<svg width="24" height="30" viewBox="0 0 24 30" fill="none" xmlns="http://www.w3.org/2000/svg">
<path d="M19.3945 15.8147C19.3642 12.0915 22.3492 10.2819 22.4803 10.1987C20.7861 7.66111 18.1642 7.30751 17.2465 7.27631C15.0481 7.03711 12.9102 8.63871 11.7909 8.63871C10.6514 8.63871 8.91685 7.30751 7.06133 7.33871C4.67135 7.38031 2.42255 8.80511 1.20234 11.0307C-1.32882 15.5547 0.556946 22.2107 2.98727 25.8715C4.20747 27.6603 5.61927 29.6675 7.48487 29.5947C9.30005 29.5219 9.98578 28.3987 12.1741 28.3987C14.3523 28.3987 14.9876 29.5947 16.8835 29.5531C18.8398 29.5219 20.06 27.7539 21.2399 25.9443C22.6416 23.8955 23.2063 21.8675 23.2265 21.7635C23.1761 21.7427 19.4348 20.2659 19.3945 15.8147Z" fill="black"/>
<path d="M15.8158 4.87394C16.794 3.61554 17.4595 1.89954 17.278 0.152344C15.8662 0.214744 14.0914 1.16114 13.0729 2.39874C12.1754 3.49074 11.3686 5.26914 11.5703 6.94354C13.1636 7.06834 14.7973 6.11154 15.8158 4.87394Z" fill="black"/>
</svg>
