<svg width="181" height="24" viewBox="0 0 181 24" fill="none" xmlns="http://www.w3.org/2000/svg">
<path d="M10.8096 23.6497C9.82845 23.4544 8.83372 23.3163 7.87014 23.0539C-0.270663 20.8442 -1.51651 13.2009 1.50077 7.60169C3.88928 3.17043 7.85652 0.909421 12.7036 0.191265C15.6781 -0.248705 18.5902 0.0373742 21.3291 1.39477C26.8478 4.13126 28.5648 10.8216 25.0706 16.3675C22.4115 20.5877 18.4442 22.7875 13.5952 23.4445C13.2467 23.4919 12.9061 23.5807 12.5615 23.6497C11.9775 23.6497 11.3935 23.6497 10.8096 23.6497ZM19.5363 10.3125C19.4798 9.49573 19.4759 8.67104 19.3611 7.86212C18.9698 5.12366 17.4748 3.57686 14.9851 3.39535C13.3207 3.275 11.8685 3.88267 10.6402 5.02501C7.69884 7.76348 6.45105 13.85 8.07064 17.5612C8.83178 19.3033 10.1458 20.1852 12.0359 20.1951C14.913 20.2109 16.7565 18.6345 18.014 16.1939C18.9581 14.361 19.3786 12.3782 19.5363 10.3125Z" fill="#171717"/>
<path d="M92.398 16.7679C91.1327 16.7679 89.8674 16.7402 88.604 16.7896C88.314 16.8014 87.9071 17.0066 87.7747 17.2473C87.2842 18.1332 86.889 19.0723 86.4491 19.9877C86.0792 20.7572 86.2466 21.3372 86.9163 21.8798C87.2161 22.1245 87.5664 22.6789 87.475 22.9491C87.3659 23.2747 86.8248 23.6278 86.4491 23.6515C84.9949 23.7442 83.533 23.7423 82.075 23.6949C81.7655 23.6851 81.2788 23.3852 81.2165 23.1307C81.1484 22.8564 81.3956 22.3119 81.6526 22.1777C82.7271 21.6194 83.2079 20.6368 83.6732 19.6188C86.2603 13.9643 89.5909 8.75372 93.0151 3.60035C94.0526 2.03777 95.3822 1.51691 97.1166 2.09893C97.613 2.26466 98.1639 2.84274 98.3333 3.35373C100.167 8.88985 101.917 14.4536 103.729 19.9956C103.93 20.6092 104.37 21.1419 104.695 21.716C104.874 22.0317 105.244 22.4204 105.166 22.6532C105.057 22.9847 104.65 23.3516 104.307 23.4384C103.722 23.5864 103.085 23.541 102.47 23.5509C100.815 23.5726 99.1606 23.6219 97.5098 23.5647C97.1069 23.5509 96.7156 23.1721 96.3204 22.963C96.5813 22.5901 96.7682 22.0889 97.1224 21.8719C97.7181 21.5069 97.9439 21.1261 97.7746 20.4297C97.5273 19.4116 97.3191 18.3798 97.1497 17.3459C97.0602 16.8034 96.7954 16.6475 96.2932 16.6554C94.9967 16.6771 93.6983 16.6633 92.4019 16.6633C92.398 16.6968 92.398 16.7324 92.398 16.7679ZM96.4684 14.2267C95.5905 11.6224 94.7573 9.15225 93.8443 6.44338C92.2189 9.21342 90.7472 11.723 89.2328 14.3056C91.4908 14.3056 93.529 14.3076 95.5671 14.3036C95.789 14.3017 96.0109 14.2662 96.4684 14.2267Z" fill="#171717"/>
<path d="M54.3204 23.5679C52.7747 23.1516 51.124 22.9563 49.7049 22.2737C45.9966 20.4862 44.8364 16.268 46.9621 12.695C48.8542 9.51653 51.7625 7.82175 55.3404 7.52976C57.0749 7.3877 58.9592 7.46662 60.5924 8.01116C65.786 9.7375 67.0611 15.5183 63.306 19.6437C61.1725 21.9856 57.7717 23.3825 54.3885 23.3055C54.3671 23.3923 54.3437 23.4791 54.3204 23.5679ZM59.1052 14.0149C58.9241 12.1997 58.3285 11.0475 57.2208 10.72C55.8679 10.3215 54.4878 10.9548 53.6196 12.3892C53.4347 12.695 53.2011 13.0185 53.1543 13.3559C52.948 14.8672 52.6151 16.3962 52.6774 17.9036C52.7572 19.8075 54.2503 20.6854 55.9925 19.9436C56.6836 19.6496 57.4447 19.038 57.7367 18.3751C58.346 16.9921 58.6672 15.4768 59.1052 14.0149Z" fill="#171717"/>
<path d="M32.5315 20.2602C32.7612 20.4555 32.9675 20.5502 33.0395 20.708C33.2692 21.2052 33.7131 21.8208 33.5768 22.2154C33.4172 22.683 32.7651 23.2374 32.2843 23.2827C30.7094 23.4347 29.1093 23.4445 27.5286 23.3439C27.077 23.3143 26.3684 22.7777 26.3003 22.3831C26.2186 21.9036 26.5592 21.1796 26.9505 20.8205C28.6441 19.2619 30.4252 17.7979 32.1694 16.2945C32.2648 16.2136 32.331 16.0972 32.5646 15.8072C31.161 14.1401 29.7809 12.4275 28.319 10.788C27.6435 10.0324 27.6844 8.95315 28.5662 8.45794C28.7063 8.37902 28.8679 8.29418 29.0198 8.29221C31.4803 8.2567 33.9408 8.1758 36.3994 8.24091C37.2384 8.26261 37.7095 9.40298 37.1314 10.0442C36.4267 10.8255 36.8082 11.2911 37.2793 11.8593C37.5071 12.1336 37.727 12.4137 38.0035 12.759C38.6322 12.1809 39.2162 11.6443 39.6561 11.2398C39.3252 10.4822 38.9554 9.99882 38.932 9.49966C38.897 8.77756 39.3953 8.23105 40.1272 8.18567C41.5132 8.09886 42.9109 8.05348 44.295 8.12845C44.6999 8.15016 45.3617 8.60591 45.4045 8.93145C45.4707 9.42074 45.241 10.1271 44.8848 10.4684C43.271 12.0172 41.5677 13.4712 39.7982 15.0476C40.4484 15.8999 41.0344 16.7088 41.6651 17.4842C42.578 18.6068 43.1406 20.0313 44.5558 20.7435C44.8595 20.8955 45.1242 21.7813 44.9607 22.0832C44.6862 22.5922 44.073 23.2196 43.5728 23.2472C41.2777 23.3676 38.9651 23.3991 36.672 23.261C35.1789 23.1703 34.9687 22.0082 36.1795 20.5226C35.6286 19.8143 35.0601 19.0843 34.3963 18.232C33.7325 18.958 33.1486 19.5913 32.5315 20.2602Z" fill="#171717"/>
<path d="M150.233 17.2006C150.63 16.9225 150.895 16.7626 151.13 16.5673C152.54 15.4092 153.947 14.2452 155.349 13.0752C156.151 12.4064 156.145 11.7494 155.433 11.0273C155.193 10.7846 154.907 10.2874 155.004 10.0802C155.154 9.76062 155.61 9.40352 155.946 9.39168C157.955 9.32065 159.966 9.32854 161.975 9.35617C162.205 9.36011 162.61 9.62843 162.621 9.79416C162.641 10.1 162.51 10.609 162.296 10.7037C161.249 11.1792 161.13 12.0946 161.008 13.0594C160.694 15.5335 160.324 18.0017 160.06 20.4797C160.019 20.8703 160.4 21.3083 160.593 21.7207C160.733 22.0226 161.068 22.3915 160.988 22.6026C160.873 22.9025 160.467 23.2734 160.169 23.2872C158.162 23.3859 156.151 23.4194 154.142 23.4135C153.858 23.4135 153.363 23.1057 153.338 22.8946C153.301 22.5908 153.525 22.0778 153.78 21.9496C154.648 21.5195 154.825 20.7697 154.928 19.9312C155.102 18.5363 155.288 17.1415 155.485 15.642C155.271 15.715 155.115 15.7268 155.014 15.8077C153.398 17.1276 151.781 18.4436 150.182 19.7852C149.595 20.2804 149.674 21.1801 150.219 21.7483C150.476 22.0166 150.817 22.5533 150.714 22.7486C150.537 23.084 150.048 23.4332 149.678 23.447C147.736 23.522 145.789 23.5121 143.842 23.4825C143.581 23.4786 143.143 23.2241 143.11 23.0307C143.062 22.7427 143.221 22.208 143.432 22.1192C144.601 21.628 144.617 20.5665 144.755 19.5761C145.08 17.2362 145.405 14.8943 145.639 12.5445C145.684 12.0867 145.316 11.5836 145.123 11.1062C145.001 10.7984 144.674 10.4295 144.757 10.2164C144.874 9.91846 145.281 9.55346 145.577 9.53965C147.584 9.44297 149.595 9.40943 151.604 9.41733C151.886 9.4193 152.378 9.74089 152.398 9.952C152.427 10.2598 152.199 10.7353 151.934 10.899C151.335 11.2719 150.961 11.7099 150.872 12.43C150.691 13.961 150.469 15.4822 150.233 17.2006Z" fill="#171717"/>
<path d="M177.792 15.6165C178.294 15.8611 178.775 16.0565 179.217 16.3189C181.428 17.623 181.609 20.3082 179.616 21.9674C178.288 23.0723 176.701 23.3801 175.066 23.4116C171.631 23.4807 168.193 23.4925 164.755 23.4748C164.377 23.4728 164.002 23.1335 163.626 22.95C163.842 22.587 164.045 22.2141 164.276 21.8609C164.566 21.419 165.078 21.0244 165.152 20.5528C165.571 17.8617 165.917 15.1588 166.209 12.4519C166.256 12.0198 165.921 11.5364 165.734 11.0886C165.606 10.7827 165.22 10.3862 165.306 10.2303C165.481 9.9107 165.868 9.58516 166.217 9.51611C166.91 9.37997 167.636 9.39378 168.349 9.38787C171.233 9.35827 174.12 9.31881 177.005 9.34446C177.737 9.35038 178.506 9.46481 179.189 9.7213C181.031 10.4138 181.453 12.5663 180.019 13.9395C179.368 14.5629 178.576 15.0345 177.792 15.6165ZM172.008 21.638C172.721 21.4525 173.462 21.342 174.136 21.0619C175.356 20.5588 175.931 19.444 175.602 18.4299C175.261 17.3764 174.282 16.9048 172.95 17.1554C170.667 17.5855 170.667 17.5855 170.447 19.884C170.317 21.2552 170.583 21.5433 172.008 21.638ZM171.029 15.4843C171.101 15.5751 171.173 15.6658 171.247 15.7546C172.277 15.3186 173.344 14.9496 174.329 14.4248C175.133 13.9947 175.775 13.2411 175.487 12.2625C175.201 11.2839 174.243 11.2464 173.382 11.2405C173.061 11.2385 172.686 11.1833 172.429 11.3273C172.063 11.5325 171.588 11.8501 171.506 12.2033C171.257 13.2746 171.175 14.3873 171.029 15.4843Z" fill="#171717"/>
<path d="M114.612 15.3048C116.556 14.5511 118.223 13.5094 119.634 12.0829C120.056 11.6548 120.027 11.2543 119.478 10.8676C119.252 10.7078 119.013 10.2224 119.101 10.035C119.235 9.74301 119.634 9.39972 119.934 9.38788C121.487 9.3208 123.044 9.32277 124.6 9.3721C124.917 9.38196 125.225 9.70158 125.536 9.87915C125.332 10.2185 125.205 10.6624 124.911 10.8775C123.241 12.1007 121.53 13.2687 119.745 14.5156C121.762 16.3919 123.048 18.5819 124.187 20.8804C124.335 21.1802 124.668 21.3973 124.94 21.6222C125.629 22.1943 125.557 22.8513 124.742 23.1946C124.537 23.2795 124.306 23.3308 124.084 23.3347C122.203 23.3781 120.323 23.4393 118.444 23.4176C118.012 23.4117 117.586 23.1059 117.156 22.9381C117.368 22.5396 117.633 22.1588 117.781 21.7366C117.925 21.3243 118.149 20.758 117.987 20.4502C117.424 19.3868 116.753 18.3727 116.033 17.408C115.521 16.7233 114.368 17.0508 114.191 17.9229C114.002 18.8522 113.874 19.8031 113.845 20.7501C113.833 21.0994 114.109 21.5295 114.374 21.8037C115.036 22.4923 114.939 23.1295 114.028 23.386C113.63 23.4985 113.196 23.4926 112.78 23.4965C111.256 23.5143 109.731 23.5498 108.209 23.4965C107.826 23.4827 107.452 23.169 107.074 22.9914C107.288 22.6264 107.493 22.2555 107.722 21.9004C108.007 21.4584 108.501 21.0599 108.577 20.5884C109.015 17.8677 109.383 15.1351 109.698 12.3966C109.743 12.002 109.385 11.5542 109.194 11.1418C109.054 10.838 108.686 10.4552 108.77 10.2718C108.92 9.94425 109.325 9.5319 109.638 9.51612C111.676 9.42142 113.718 9.40564 115.758 9.42142C116 9.42339 116.348 9.73315 116.443 9.97977C116.519 10.179 116.36 10.6466 116.175 10.7413C114.205 11.7712 115.055 13.7422 114.612 15.3048Z" fill="#171717"/>
<path d="M71.4049 11.166C70.6184 11.5349 70.0403 11.7835 69.4816 12.0716C69.0222 12.3083 68.6115 12.6635 68.1326 12.8332C66.9744 13.2455 65.9485 12.3458 66.1217 11.1206C66.4235 8.98391 67.2761 8.23616 69.4057 8.21643C73.262 8.18092 77.1202 8.13554 80.9765 8.09411C81.7337 8.08622 82.6661 8.03098 82.89 8.88132C83.1333 9.81453 83.2462 10.9214 82.9757 11.8171C82.6369 12.9377 81.2587 13.0443 80.1842 12.2807C79.6917 11.9315 79.1719 11.5843 78.6152 11.3712C78.1363 11.1877 77.8054 11.3732 77.7275 12.0262C77.4278 14.599 77.0462 17.1638 76.7367 19.7365C76.7017 20.0246 76.9177 20.3501 77.0404 20.65C77.2467 21.1571 77.6769 21.674 77.6399 22.1593C77.5854 22.9209 76.9002 23.2642 76.178 23.3609C75.7634 23.4161 75.3371 23.3983 74.9147 23.4023C73.3904 23.4141 71.8623 23.4911 70.3479 23.3885C69.8301 23.353 69.139 22.9801 68.8898 22.546C68.5141 21.891 68.8684 21.1728 69.5381 20.8019C70.196 20.4389 70.3557 19.9062 70.4374 19.2038C70.6944 16.9882 71.0311 14.7844 71.327 12.5747C71.3718 12.2235 71.3679 11.8644 71.4049 11.166Z" fill="#171717"/>
<path d="M135.405 9.34646C137.415 9.34646 139.428 9.36422 141.439 9.33659C142.105 9.32673 142.671 9.49048 142.751 10.1968C142.841 11.0037 143.195 11.9231 142.354 12.5782C141.71 13.0773 141.174 12.7261 140.594 12.3513C139.983 11.9567 139.319 11.5897 138.628 11.3964C137.935 11.203 137.472 11.57 137.371 12.3671C137.028 15.072 136.629 17.769 136.327 20.4759C136.284 20.8685 136.647 21.3144 136.839 21.7268C136.981 22.0326 137.353 22.4213 137.269 22.6028C137.116 22.9303 136.707 23.3328 136.388 23.3485C134.351 23.4492 132.309 23.4728 130.269 23.461C130.038 23.459 129.672 23.1217 129.617 22.8809C129.559 22.6324 129.726 22.1529 129.931 22.0484C130.999 21.5078 131.145 20.5608 131.264 19.5052C131.523 17.189 131.887 14.8865 132.165 12.5722C132.294 11.5049 132.095 11.3036 131.05 11.5029C130.466 11.6134 129.915 11.937 129.368 12.2033C128.963 12.4006 128.611 12.7301 128.194 12.8761C127.353 13.1701 126.785 12.6374 126.927 11.7495C127.209 9.97189 127.78 9.45497 129.571 9.43524C131.517 9.41354 133.464 9.4313 135.41 9.4313C135.405 9.40367 135.405 9.37605 135.405 9.34646Z" fill="#171717"/>
</svg>
