<svg width="12" height="15" viewBox="0 0 12 15" fill="none" xmlns="http://www.w3.org/2000/svg">
<path d="M11.5 6C11.5 8.33619 10.3277 10.4751 8.99331 12.052C8.32962 12.8364 7.63863 13.4661 7.06102 13.8956C6.77172 14.1108 6.51814 14.2702 6.31684 14.3734C6.10982 14.4795 6.01196 14.4977 6.001 14.4998C6.00017 14.4999 5.99984 14.5 6 14.5C6.00016 14.5 5.99983 14.4999 5.999 14.4998C5.98804 14.4977 5.89018 14.4795 5.68316 14.3734C5.48186 14.2702 5.22828 14.1108 4.93898 13.8956C4.36137 13.4661 3.67038 12.8364 3.00669 12.052C1.67233 10.4751 0.5 8.33619 0.5 6C0.5 2.96243 2.96243 0.5 6 0.5C9.03757 0.5 11.5 2.96243 11.5 6Z" stroke="#171717"/>
<circle cx="6" cy="6" r="2.5" stroke="#171717"/>
</svg>
