<svg width="28" height="28" viewBox="0 0 28 28" fill="none" xmlns="http://www.w3.org/2000/svg">
<path fill-rule="evenodd" clip-rule="evenodd" d="M8.47109 1.40039C3.29397 1.40039 1.40039 3.29364 1.40039 8.46971V19.5311C1.40039 24.7071 3.29397 26.6004 8.47109 26.6004H19.5263C24.7033 26.6004 26.6004 24.7071 26.6004 19.5311V8.46971C26.6004 3.29364 24.7068 1.40039 19.5297 1.40039H8.47109Z" fill="url(#paint0_linear_442_2468)"/>
<path fill-rule="evenodd" clip-rule="evenodd" d="M12.3914 16.0155H13.403L12.8955 14.8351L12.3914 16.0155ZM12.1422 16.6103L11.8421 17.2971H11.1587L12.6119 14.0002H13.2025L14.6499 17.2971H13.9483L13.652 16.6103H12.1422ZM23.1387 17.2947H23.7992V14H23.1387V17.2947ZM20.51 15.8794H21.7274V15.2786H20.51V14.6034H22.2773V14.0024H19.8497V17.2969H22.3409V16.696H20.51V15.8794ZM17.8857 16.2687L17.1369 14H16.5904L15.8416 16.2687L15.1129 14.0018H14.4003L15.5504 17.299H16.1043L16.8543 15.1332L17.6043 17.299H18.1631L19.3101 14.0018H18.616L17.8857 16.2687ZM10.1505 15.8885C10.1505 16.4248 9.88411 16.7114 9.40045 16.7114C8.91415 16.7114 8.64639 16.4165 8.64639 15.8656V14.0022H7.977V15.8885C7.977 16.8163 8.49266 17.3484 9.39133 17.3484C10.2989 17.3484 10.8192 16.8062 10.8192 15.8609V14.0002H10.1505V15.8885ZM6.37997 14.0002H7.04896V17.2992H6.37997V15.9594H4.86861V17.2992H4.19922V14.0002H4.86861V15.3309H6.37997V14.0002Z" fill="white"/>
<path fill-rule="evenodd" clip-rule="evenodd" d="M14.0008 9.80059C11.6847 9.80059 9.80078 7.9165 9.80078 5.60059H10.394C10.394 7.58919 12.0122 9.20712 14.0008 9.20712C15.9894 9.20712 17.6075 7.58919 17.6075 5.60059H18.2008C18.2008 7.9165 16.3167 9.80059 14.0008 9.80059Z" fill="white"/>
<defs>
<linearGradient id="paint0_linear_442_2468" x1="14.0004" y1="1.40039" x2="14.0004" y2="26.6004" gradientUnits="userSpaceOnUse">
<stop stop-color="#FB6361"/>
<stop offset="1" stop-color="#ED3E45"/>
</linearGradient>
</defs>
</svg>
