<svg width="61" height="61" viewBox="0 0 61 61" fill="none" xmlns="http://www.w3.org/2000/svg">
<circle cx="30.5" cy="30.5" r="30.5" fill="#FFE53E"/>
<path d="M47.9767 28.446L46.8088 24.0248C47.1281 23.9606 47.3677 23.6925 47.3677 23.3713V22.6584C47.3677 21.1107 46.0372 19.8516 44.402 19.8516H39.0824V18.3812C39.0824 17.6196 38.4278 17 37.6231 17H15.3393C14.5346 17 13.88 17.6196 13.88 18.3812V30.4999C13.88 30.8689 14.1961 31.1682 14.5861 31.1682C14.9761 31.1682 15.2923 30.869 15.2923 30.4999V18.3812C15.2923 18.3567 15.3134 18.3367 15.3393 18.3367H37.623C37.649 18.3367 37.67 18.3568 37.67 18.3812V30.5C37.67 30.8691 37.9861 31.1684 38.3762 31.1684C38.7661 31.1684 39.0823 30.8692 39.0823 30.5V29.7424H47.4123L47.4141 29.7426L47.4161 29.7425C48.4411 29.7432 49.3114 30.3799 49.6104 31.2573H47.4147C47.0247 31.2573 46.7085 31.5565 46.7085 31.9257V33.3514C46.7085 34.506 47.701 35.4454 48.9211 35.4454H49.7214V38.3859H47.875C47.2684 36.7283 45.6036 35.5344 43.6486 35.5344C41.6936 35.5344 40.0286 36.7283 39.4222 38.3859H39.0822V33.3513C39.0822 32.9822 38.766 32.6829 38.376 32.6829C37.9861 32.6829 37.6698 32.9821 37.6698 33.3513V38.3857H27.8511C27.2446 36.7281 25.5797 35.5343 23.6247 35.5343C21.6697 35.5343 20.0048 36.7281 19.3983 38.3857H15.3393C15.3134 38.3857 15.2923 38.3656 15.2923 38.3412V36.8709H18.3522C18.7422 36.8709 19.0584 36.5717 19.0584 36.2026C19.0584 35.8334 18.7423 35.5343 18.3522 35.5343H14.5867H14.5858H11.5734C11.1834 35.5343 10.8672 35.8334 10.8672 36.2026C10.8672 36.5717 11.1833 36.8709 11.5734 36.8709H13.8801V38.3412C13.8801 39.1028 14.5347 39.7224 15.3394 39.7224H19.1538C19.1536 39.7372 19.1526 39.7521 19.1526 39.7669C19.1526 42.1007 21.1588 43.9995 23.6247 43.9995C26.0906 43.9995 28.0969 42.1007 28.0969 39.7669C28.0969 39.7521 28.0958 39.7372 28.0956 39.7224H39.1776C39.1775 39.7372 39.1764 39.7521 39.1764 39.7669C39.1764 42.1007 41.1827 43.9995 43.6486 43.9995C46.1145 43.9995 48.1207 42.1007 48.1207 39.7669C48.1207 39.7521 48.1197 39.7372 48.1195 39.7224H50.4275C50.8175 39.7224 51.1337 39.4232 51.1337 39.0541V31.9255C51.1338 30.1655 49.7617 28.7032 47.9767 28.446ZM39.0824 21.1881H44.402C45.2586 21.1881 45.9555 21.8477 45.9555 22.6584V22.703H39.0824V21.1881ZM39.0824 28.4058V24.0395H45.357L46.5104 28.4058H39.0824ZM23.6247 42.6631C21.9375 42.6631 20.5648 41.364 20.5648 39.7671C20.5648 38.1702 21.9375 36.8711 23.6247 36.8711C25.312 36.8711 26.6846 38.1702 26.6846 39.7671C26.6846 41.364 25.312 42.6631 23.6247 42.6631ZM43.6488 42.6631C41.9615 42.6631 40.5888 41.364 40.5888 39.7671C40.5888 38.1702 41.9615 36.8711 43.6488 36.8711C45.336 36.8711 46.7087 38.1702 46.7087 39.7671C46.7087 41.364 45.336 42.6631 43.6488 42.6631ZM49.7216 34.1087H48.9212C48.4799 34.1087 48.1209 33.7689 48.1209 33.3513V32.5938H49.7215L49.7216 34.1087Z" fill="black"/>
<path d="M23.6244 38.3857C22.8197 38.3857 22.165 39.0053 22.165 39.7669C22.165 40.5285 22.8197 41.1481 23.6244 41.1481C24.4291 41.1481 25.0838 40.5285 25.0838 39.7669C25.0838 39.0053 24.4291 38.3857 23.6244 38.3857Z" fill="black"/>
<path d="M43.6488 38.3857C42.8441 38.3857 42.1895 39.0053 42.1895 39.7669C42.1895 40.5285 42.8441 41.1481 43.6488 41.1481C44.4535 41.1481 45.1082 40.5285 45.1082 39.7669C45.1082 39.0053 44.4535 38.3857 43.6488 38.3857Z" fill="black"/>
<path d="M22.1168 32.6826H13.0782C12.6883 32.6826 12.3721 32.9818 12.3721 33.3509C12.3721 33.7201 12.6882 34.0193 13.0782 34.0193H22.1168C22.5067 34.0193 22.823 33.7201 22.823 33.3509C22.823 32.9818 22.5067 32.6826 22.1168 32.6826Z" fill="black"/>
<path d="M27.2856 20.5654C23.5736 20.5654 20.5537 23.4236 20.5537 26.9366C20.5537 30.4497 23.5736 33.3079 27.2856 33.3079C30.9975 33.3079 34.0174 30.4497 34.0174 26.9366C34.0174 23.4236 30.9975 20.5654 27.2856 20.5654ZM27.2856 31.9713C24.3524 31.9713 21.966 29.7128 21.966 26.9367C21.966 24.1607 24.3524 21.9022 27.2856 21.9022C30.2187 21.9022 32.6051 24.1607 32.6051 26.9367C32.6051 29.7128 30.2187 31.9713 27.2856 31.9713Z" fill="black"/>
<path d="M30.0452 28.6008L27.9924 26.658V24.0834C27.9924 23.7143 27.6763 23.415 27.2862 23.415C26.8962 23.415 26.5801 23.7142 26.5801 24.0834V26.9349C26.5801 27.1121 26.6544 27.282 26.7869 27.4074L29.0465 29.5459C29.1843 29.6764 29.3651 29.7417 29.5458 29.7417C29.7264 29.7417 29.9072 29.6765 30.045 29.5459C30.321 29.2849 30.321 28.8618 30.0452 28.6008Z" fill="black"/>
</svg>
