<svg width="61" height="61" viewBox="0 0 61 61" fill="none" xmlns="http://www.w3.org/2000/svg">
<circle cx="30.5" cy="30.5" r="30.5" fill="#FFE53E"/>
<path d="M27.4768 33.7402C27.6014 33.8733 27.6713 34.0539 27.6713 34.2422C27.6713 34.4304 27.6014 34.611 27.4768 34.7442L19.9961 42.7392C19.9344 42.8051 19.8611 42.8574 19.7805 42.893C19.6998 42.9287 19.6134 42.947 19.5261 42.947C19.3498 42.9469 19.1808 42.872 19.0562 42.7387C18.9316 42.6055 18.8616 42.4248 18.8617 42.2364C18.8618 42.048 18.9319 41.8674 19.0566 41.7342L26.5373 33.7402C26.6619 33.6071 26.8309 33.5323 27.0071 33.5323C27.1832 33.5323 27.3522 33.6071 27.4768 33.7402ZM44.8174 42.2624C44.7836 42.3798 44.722 42.4858 44.6385 42.5701C44.555 42.6544 44.4525 42.7141 44.3409 42.7434C44.2294 42.7727 44.1126 42.7707 44.0021 42.7374C43.8915 42.7041 43.7909 42.6408 43.71 42.5536L41.4546 40.1434L40.2293 41.4537L42.4856 43.8657C42.5665 43.9524 42.6251 44.06 42.6556 44.178C42.6862 44.2961 42.6877 44.4205 42.6599 44.5393C42.6322 44.6582 42.5761 44.7673 42.4972 44.8561C42.4184 44.945 42.3193 45.0105 42.2098 45.0464C41.8036 45.1778 41.3814 45.2439 40.957 45.2426C39.6578 45.2426 38.3178 44.6478 37.3093 43.5701C36.3448 42.5394 35.7849 41.1936 35.7459 39.8363L31.3945 35.1854C31.3406 35.1535 31.2912 35.1138 31.2475 35.0673L30.7848 34.5729C30.6101 35.1904 30.2947 35.752 29.8668 36.2072L21.7697 44.86C21.1268 45.555 20.2604 45.9626 19.3465 45.9998H19.2219C18.7975 46.0044 18.3766 45.9187 17.9835 45.7477C17.5904 45.5767 17.2332 45.3238 16.9324 45.0038C15.6373 43.6198 15.6988 41.301 17.0703 39.8354L25.1674 31.1826C25.5933 30.7258 26.1185 30.3888 26.696 30.2016L26.2349 29.7089C26.1914 29.6623 26.1542 29.6094 26.1244 29.5518L21.7589 24.8859C20.4896 24.845 19.2311 24.2467 18.2699 23.216C16.9316 21.7841 16.3891 19.7299 16.8876 17.9784C16.9211 17.8611 16.9824 17.7551 17.0656 17.6707C17.1488 17.5862 17.251 17.5263 17.3624 17.4966C17.4737 17.4669 17.5903 17.4686 17.7009 17.5013C17.8114 17.5341 17.9122 17.5969 17.9933 17.6836L20.2495 20.0938L21.4757 18.7827L19.2161 16.3769C19.1349 16.2902 19.0762 16.1826 19.0455 16.0644C19.0148 15.9463 19.0133 15.8216 19.0411 15.7027C19.0688 15.5837 19.125 15.4745 19.204 15.3856C19.283 15.2966 19.3822 15.2311 19.4919 15.1953C21.1293 14.6627 23.0532 15.2406 24.3932 16.6716C25.3585 17.7023 25.9184 19.0481 25.9574 20.4063L31.7725 26.6205L40.7286 17.0436C40.7745 16.9932 40.8275 16.9507 40.8856 16.9175L43.9842 15.142C44.1097 15.0707 44.2533 15.0443 44.394 15.0666C44.5346 15.089 44.6648 15.1589 44.7655 15.2662C44.8662 15.3735 44.932 15.5124 44.9533 15.6627C44.9746 15.8129 44.9503 15.9665 44.8839 16.1008L43.2158 19.4121C43.1851 19.4731 43.1462 19.5291 43.1003 19.5781L34.1409 29.1523L39.9435 35.3532C41.2129 35.394 42.4706 35.9924 43.4326 37.023C44.7742 38.4549 45.3158 40.5101 44.8174 42.2589V42.2624ZM32.722 32.4867L28.6515 28.1368L27.6637 29.1914L31.7343 33.5413L32.722 32.4867ZM31.3796 29.0422L31.8722 29.5687L42.0901 18.6495L42.6633 17.5114L41.5975 18.1231L31.3796 29.0422ZM22.5041 23.6768L26.7234 28.1856L28.1805 26.6285C28.3051 26.4954 28.474 26.4206 28.6502 26.4206C28.8264 26.4206 28.9954 26.4954 29.12 26.6285L30.4392 28.0382L30.8288 27.6219L24.8218 21.2026C24.7574 21.1338 24.7069 21.0516 24.6735 20.961C24.64 20.8704 24.6243 20.7735 24.6274 20.6762C24.6615 19.6038 24.2337 18.5101 23.4528 17.6765C22.8368 17.006 22.0302 16.5727 21.1592 16.4444L22.8821 18.2864C23.0066 18.4196 23.0766 18.6002 23.0766 18.7884C23.0766 18.9767 23.0066 19.1573 22.8821 19.2904L20.7156 21.6057C20.5909 21.7387 20.422 21.8135 20.2458 21.8135C20.0696 21.8135 19.9006 21.7387 19.776 21.6057L18.0539 19.7654C18.1744 20.6948 18.5785 21.5558 19.2036 22.2147C19.9845 23.0482 21.0071 23.5054 22.009 23.469H22.0323C22.1198 23.4687 22.2066 23.4869 22.2876 23.5226C22.3686 23.5582 22.4421 23.6106 22.5041 23.6768ZM29.5993 33.3061L27.8814 31.4711C27.5549 31.4458 27.2272 31.4967 26.9209 31.6202C26.6146 31.7438 26.3372 31.937 26.1078 32.1866L18.0099 40.8421C17.1567 41.7538 17.0961 43.1715 17.8728 44.0024C18.06 44.1992 18.2835 44.3523 18.5291 44.4518C18.7747 44.5513 19.0369 44.595 19.2992 44.5803C19.8768 44.5553 20.4239 44.2963 20.8294 43.8559L28.9273 35.2049C29.3394 34.7716 29.5817 34.187 29.6052 33.5697C29.6083 33.4818 29.6064 33.3937 29.5993 33.3061ZM43.6477 40.4763C43.5272 39.5466 43.1221 38.6857 42.4955 38.0279C41.7146 37.1935 40.692 36.7372 39.691 36.7736C39.5999 36.7769 39.5092 36.7601 39.4245 36.7244C39.3397 36.6887 39.2628 36.6347 39.1984 36.5658L33.2014 30.1572L32.8118 30.5736L34.1318 31.9851C34.2563 32.1183 34.3263 32.2988 34.3263 32.4871C34.3263 32.6754 34.2563 32.856 34.1318 32.9891L32.6755 34.5453L36.8798 39.04C36.9441 39.1087 36.9946 39.1908 37.028 39.2812C37.0615 39.3716 37.0772 39.4683 37.0742 39.5655C37.041 40.6379 37.4688 41.7316 38.2489 42.5661C38.8651 43.236 39.6716 43.669 40.5425 43.7973L38.8196 41.9562C38.7578 41.8902 38.7088 41.8119 38.6753 41.7257C38.6419 41.6395 38.6246 41.547 38.6246 41.4537C38.6246 41.3604 38.6419 41.268 38.6753 41.1818C38.7088 41.0955 38.7578 41.0172 38.8196 40.9513L40.9861 38.636C41.1107 38.503 41.2797 38.4282 41.4559 38.4282C41.632 38.4282 41.801 38.503 41.9256 38.636L43.6477 40.4763Z" fill="black"/>
</svg>
