<svg width="23" height="23" viewBox="0 0 23 23" fill="none" xmlns="http://www.w3.org/2000/svg">
<path d="M20.125 0H2.875C1.28718 0 0 1.28718 0 2.875V20.125C0 21.7128 1.28718 23 2.875 23H20.125C21.7128 23 23 21.7128 23 20.125V2.875C23 1.28718 21.7128 0 20.125 0Z" fill="#7F7F7F"/>
<path d="M19.7848 7.69097C19.9048 7.29233 19.7848 7 19.2173 7H17.3373C16.8589 7 16.6403 7.2529 16.5203 7.53066C16.5203 7.53066 15.5644 9.86162 14.2099 11.373C13.7727 11.8128 13.5729 11.9517 13.3346 11.9517C13.2154 11.9517 13.0422 11.8128 13.0422 11.4142V7.69097C13.0422 7.21261 12.9042 7 12.5056 7H9.55138C9.25305 7 9.07301 7.22118 9.07301 7.43207C9.07301 7.88472 9.75027 7.98931 9.81971 9.26495V12.0323C9.81971 12.6384 9.71084 12.749 9.4708 12.749C8.83383 12.749 7.28386 10.4094 6.36399 7.73127C6.18482 7.21089 6.00393 7.00086 5.52385 7.00086H3.64468C3.10716 7.00086 3 7.25376 3 7.53152C3 8.03046 3.63696 10.4994 5.96707 13.7648C7.52047 15.9946 9.70741 17.2034 11.6997 17.2034C12.8939 17.2034 13.0414 16.9351 13.0414 16.4722V14.7867C13.0414 14.2501 13.1554 14.1421 13.5335 14.1421C13.8112 14.1421 14.2896 14.2826 15.4049 15.3568C16.6789 16.6308 16.8898 17.2026 17.6056 17.2026H19.4848C20.0214 17.2026 20.2897 16.9342 20.1354 16.4044C19.9665 15.8772 19.3579 15.1099 18.5503 14.2021C18.1114 13.6843 17.4556 13.127 17.2558 12.8484C16.9772 12.4892 17.0578 12.3306 17.2558 12.0117C17.2567 12.0126 19.5465 8.78744 19.7848 7.69097Z" fill="#171717"/>
</svg>
