<svg width="20" height="20" viewBox="0 0 20 20" fill="none" xmlns="http://www.w3.org/2000/svg">
<path d="M6.7 13C6.7 12.282 7.28203 11.7 8 11.7H12C12.718 11.7 13.3 12.282 13.3 13V18C13.3 18.718 12.718 19.3 12 19.3H8C7.28203 19.3 6.7 18.718 6.7 18V13Z" stroke="#171717" stroke-width="1.4"/>
<path d="M0.7 8.08537C0.7 7.64535 0.922584 7.2352 1.29152 6.9954L9.29151 1.7954C9.72233 1.51536 10.2777 1.51536 10.7085 1.7954L18.7085 6.9954C19.0774 7.2352 19.3 7.64535 19.3 8.08537V18C19.3 18.718 18.718 19.3 18 19.3H12H8H2C1.28203 19.3 0.7 18.718 0.7 18V8.08537Z" stroke="#171717" stroke-width="1.4"/>
</svg>
