<svg width="130" height="130" viewBox="0 0 130 130" fill="none" xmlns="http://www.w3.org/2000/svg">
<path d="M3.51351 0H0V3.51351H3.51351V0Z" fill="black"/>
<path d="M7.02703 0H3.51351V3.51351H7.02703V0Z" fill="black"/>
<path d="M10.5405 0H7.02703V3.51351H10.5405V0Z" fill="black"/>
<path d="M14.0541 0H10.5405V3.51351H14.0541V0Z" fill="black"/>
<path d="M17.5676 0H14.0541V3.51351H17.5676V0Z" fill="black"/>
<path d="M21.0811 0H17.5676V3.51351H21.0811V0Z" fill="black"/>
<path d="M24.5946 0H21.0811V3.51351H24.5946V0Z" fill="black"/>
<path d="M31.6216 0H28.1081V3.51351H31.6216V0Z" fill="black"/>
<path d="M38.6486 0H35.1351V3.51351H38.6486V0Z" fill="black"/>
<path d="M42.1622 0H38.6486V3.51351H42.1622V0Z" fill="black"/>
<path d="M49.1892 0H45.6757V3.51351H49.1892V0Z" fill="black"/>
<path d="M63.2433 0H59.7297V3.51351H63.2433V0Z" fill="black"/>
<path d="M66.7568 0H63.2433V3.51351H66.7568V0Z" fill="black"/>
<path d="M84.3243 0H80.8108V3.51351H84.3243V0Z" fill="black"/>
<path d="M91.3514 0H87.8378V3.51351H91.3514V0Z" fill="black"/>
<path d="M94.8649 0H91.3514V3.51351H94.8649V0Z" fill="black"/>
<path d="M98.3784 0H94.8649V3.51351H98.3784V0Z" fill="black"/>
<path d="M101.892 0H98.3784V3.51351H101.892V0Z" fill="black"/>
<path d="M108.919 0H105.405V3.51351H108.919V0Z" fill="black"/>
<path d="M112.432 0H108.919V3.51351H112.432V0Z" fill="black"/>
<path d="M115.946 0H112.432V3.51351H115.946V0Z" fill="black"/>
<path d="M119.459 0H115.946V3.51351H119.459V0Z" fill="black"/>
<path d="M122.973 0H119.459V3.51351H122.973V0Z" fill="black"/>
<path d="M126.486 0H122.973V3.51351H126.486V0Z" fill="black"/>
<path d="M130 0H126.486V3.51351H130V0Z" fill="black"/>
<path d="M3.51351 3.51351H0V7.02703H3.51351V3.51351Z" fill="black"/>
<path d="M24.5946 3.51351H21.0811V7.02703H24.5946V3.51351Z" fill="black"/>
<path d="M35.1351 3.51351H31.6216V7.02703H35.1351V3.51351Z" fill="black"/>
<path d="M38.6486 3.51351H35.1351V7.02703H38.6486V3.51351Z" fill="black"/>
<path d="M45.6757 3.51351H42.1622L42.1622 7.02703H45.6757L45.6757 3.51351Z" fill="black"/>
<path d="M56.2162 3.51351H52.7027V7.02703H56.2162V3.51351Z" fill="black"/>
<path d="M77.2973 3.51351H73.7838V7.02703H77.2973V3.51351Z" fill="black"/>
<path d="M80.8108 3.51351H77.2973V7.02703H80.8108V3.51351Z" fill="black"/>
<path d="M108.919 3.51351H105.405V7.02703H108.919V3.51351Z" fill="black"/>
<path d="M130 3.51351H126.486V7.02703H130V3.51351Z" fill="black"/>
<path d="M3.51351 7.02703H0V10.5405H3.51351V7.02703Z" fill="black"/>
<path d="M10.5405 7.02703H7.02703V10.5405H10.5405V7.02703Z" fill="black"/>
<path d="M14.0541 7.02703H10.5405V10.5405H14.0541V7.02703Z" fill="black"/>
<path d="M17.5676 7.02703H14.0541V10.5405H17.5676V7.02703Z" fill="black"/>
<path d="M24.5946 7.02703H21.0811V10.5405H24.5946V7.02703Z" fill="black"/>
<path d="M31.6216 7.02703H28.1081V10.5405H31.6216V7.02703Z" fill="black"/>
<path d="M35.1351 7.02703H31.6216V10.5405H35.1351V7.02703Z" fill="black"/>
<path d="M49.1892 7.02703H45.6757L45.6757 10.5405H49.1892V7.02703Z" fill="black"/>
<path d="M52.7027 7.02703H49.1892V10.5405H52.7027L52.7027 7.02703Z" fill="black"/>
<path d="M63.2433 7.02703H59.7297V10.5405H63.2433V7.02703Z" fill="black"/>
<path d="M77.2973 7.02703H73.7838V10.5405H77.2973V7.02703Z" fill="black"/>
<path d="M87.8378 7.02703H84.3243V10.5405H87.8378V7.02703Z" fill="black"/>
<path d="M94.8649 7.02703H91.3514V10.5405H94.8649V7.02703Z" fill="black"/>
<path d="M98.3784 7.02703H94.8649V10.5405H98.3784V7.02703Z" fill="black"/>
<path d="M108.919 7.02703H105.405V10.5405H108.919V7.02703Z" fill="black"/>
<path d="M115.946 7.02703H112.432V10.5405H115.946V7.02703Z" fill="black"/>
<path d="M119.459 7.02703H115.946V10.5405H119.459V7.02703Z" fill="black"/>
<path d="M122.973 7.02703H119.459V10.5405H122.973V7.02703Z" fill="black"/>
<path d="M130 7.02703H126.486V10.5405H130V7.02703Z" fill="black"/>
<path d="M3.51351 10.5405H0V14.0541H3.51351V10.5405Z" fill="black"/>
<path d="M10.5405 10.5405H7.02703V14.0541H10.5405V10.5405Z" fill="black"/>
<path d="M14.0541 10.5405H10.5405V14.0541H14.0541V10.5405Z" fill="black"/>
<path d="M17.5676 10.5405H14.0541V14.0541H17.5676V10.5405Z" fill="black"/>
<path d="M24.5946 10.5405H21.0811V14.0541H24.5946V10.5405Z" fill="black"/>
<path d="M31.6216 10.5405H28.1081V14.0541H31.6216V10.5405Z" fill="black"/>
<path d="M38.6486 10.5405H35.1351V14.0541H38.6486V10.5405Z" fill="black"/>
<path d="M45.6757 10.5405H42.1622V14.0541H45.6757L45.6757 10.5405Z" fill="black"/>
<path d="M49.1892 10.5405H45.6757L45.6757 14.0541H49.1892V10.5405Z" fill="black"/>
<path d="M52.7027 10.5405H49.1892V14.0541H52.7027V10.5405Z" fill="black"/>
<path d="M56.2162 10.5405H52.7027V14.0541H56.2162V10.5405Z" fill="black"/>
<path d="M59.7297 10.5405H56.2162V14.0541H59.7297L59.7297 10.5405Z" fill="black"/>
<path d="M63.2433 10.5405H59.7297L59.7297 14.0541H63.2433V10.5405Z" fill="black"/>
<path d="M70.2703 10.5405H66.7568V14.0541H70.2703V10.5405Z" fill="black"/>
<path d="M73.7838 10.5405H70.2703V14.0541H73.7838V10.5405Z" fill="black"/>
<path d="M80.8108 10.5405H77.2973V14.0541H80.8108V10.5405Z" fill="black"/>
<path d="M87.8378 10.5405H84.3243V14.0541H87.8378V10.5405Z" fill="black"/>
<path d="M108.919 10.5405H105.405V14.0541H108.919V10.5405Z" fill="black"/>
<path d="M115.946 10.5405H112.432V14.0541H115.946V10.5405Z" fill="black"/>
<path d="M119.459 10.5405H115.946V14.0541H119.459V10.5405Z" fill="black"/>
<path d="M122.973 10.5405H119.459V14.0541H122.973V10.5405Z" fill="black"/>
<path d="M130 10.5405H126.486V14.0541H130V10.5405Z" fill="black"/>
<path d="M3.51351 14.0541H0V17.5676H3.51351V14.0541Z" fill="black"/>
<path d="M10.5405 14.0541H7.02703V17.5676H10.5405V14.0541Z" fill="black"/>
<path d="M14.0541 14.0541H10.5405V17.5676H14.0541V14.0541Z" fill="black"/>
<path d="M17.5676 14.0541H14.0541V17.5676H17.5676V14.0541Z" fill="black"/>
<path d="M24.5946 14.0541H21.0811V17.5676H24.5946V14.0541Z" fill="black"/>
<path d="M31.6216 14.0541H28.1081V17.5676H31.6216V14.0541Z" fill="black"/>
<path d="M49.1892 14.0541H45.6757L45.6757 17.5676H49.1892V14.0541Z" fill="black"/>
<path d="M66.7568 14.0541H63.2433L63.2432 17.5676H66.7568V14.0541Z" fill="black"/>
<path d="M84.3243 14.0541H80.8108V17.5676H84.3243V14.0541Z" fill="black"/>
<path d="M94.8649 14.0541H91.3514V17.5676H94.8649V14.0541Z" fill="black"/>
<path d="M98.3784 14.0541H94.8649V17.5676H98.3784V14.0541Z" fill="black"/>
<path d="M108.919 14.0541H105.405V17.5676H108.919V14.0541Z" fill="black"/>
<path d="M115.946 14.0541H112.432V17.5676H115.946V14.0541Z" fill="black"/>
<path d="M119.459 14.0541H115.946V17.5676H119.459V14.0541Z" fill="black"/>
<path d="M122.973 14.0541H119.459V17.5676H122.973V14.0541Z" fill="black"/>
<path d="M130 14.0541H126.486V17.5676H130V14.0541Z" fill="black"/>
<path d="M3.51351 17.5676H0V21.0811H3.51351V17.5676Z" fill="black"/>
<path d="M24.5946 17.5676H21.0811V21.0811H24.5946V17.5676Z" fill="black"/>
<path d="M31.6216 17.5676H28.1081V21.0811H31.6216V17.5676Z" fill="black"/>
<path d="M35.1351 17.5676H31.6216V21.0811H35.1351V17.5676Z" fill="black"/>
<path d="M38.6486 17.5676H35.1351V21.0811H38.6486V17.5676Z" fill="black"/>
<path d="M42.1622 17.5676H38.6486V21.0811H42.1622V17.5676Z" fill="black"/>
<path d="M49.1892 17.5676H45.6757V21.0811H49.1892V17.5676Z" fill="black"/>
<path d="M52.7027 17.5676H49.1892V21.0811H52.7027V17.5676Z" fill="black"/>
<path d="M59.7297 17.5676H56.2162V21.0811H59.7297V17.5676Z" fill="black"/>
<path d="M66.7568 17.5676H63.2432V21.0811H66.7568V17.5676Z" fill="black"/>
<path d="M70.2703 17.5676H66.7568V21.0811H70.2703V17.5676Z" fill="black"/>
<path d="M77.2973 17.5676H73.7838V21.0811H77.2973V17.5676Z" fill="black"/>
<path d="M84.3243 17.5676H80.8108V21.0811H84.3243V17.5676Z" fill="black"/>
<path d="M94.8649 17.5676H91.3514V21.0811H94.8649V17.5676Z" fill="black"/>
<path d="M98.3784 17.5676H94.8649V21.0811H98.3784V17.5676Z" fill="black"/>
<path d="M101.892 17.5676H98.3784V21.0811H101.892V17.5676Z" fill="black"/>
<path d="M108.919 17.5676H105.405V21.0811H108.919V17.5676Z" fill="black"/>
<path d="M130 17.5676H126.486V21.0811H130V17.5676Z" fill="black"/>
<path d="M3.51351 21.0811H0V24.5946H3.51351V21.0811Z" fill="black"/>
<path d="M7.02703 21.0811H3.51351V24.5946H7.02703V21.0811Z" fill="black"/>
<path d="M10.5405 21.0811H7.02703V24.5946H10.5405V21.0811Z" fill="black"/>
<path d="M14.0541 21.0811H10.5405V24.5946H14.0541V21.0811Z" fill="black"/>
<path d="M17.5676 21.0811H14.0541V24.5946H17.5676V21.0811Z" fill="black"/>
<path d="M21.0811 21.0811H17.5676V24.5946H21.0811V21.0811Z" fill="black"/>
<path d="M24.5946 21.0811H21.0811V24.5946H24.5946V21.0811Z" fill="black"/>
<path d="M31.6216 21.0811H28.1081V24.5946H31.6216V21.0811Z" fill="black"/>
<path d="M38.6486 21.0811H35.1351V24.5946H38.6486V21.0811Z" fill="black"/>
<path d="M45.6757 21.0811H42.1622L42.1622 24.5946H45.6757L45.6757 21.0811Z" fill="black"/>
<path d="M52.7027 21.0811H49.1892V24.5946H52.7027V21.0811Z" fill="black"/>
<path d="M59.7297 21.0811H56.2162V24.5946H59.7297V21.0811Z" fill="black"/>
<path d="M66.7568 21.0811H63.2432V24.5946H66.7568V21.0811Z" fill="black"/>
<path d="M73.7838 21.0811H70.2703V24.5946H73.7838V21.0811Z" fill="black"/>
<path d="M80.8108 21.0811H77.2973V24.5946H80.8108V21.0811Z" fill="black"/>
<path d="M87.8378 21.0811H84.3243V24.5946H87.8378V21.0811Z" fill="black"/>
<path d="M94.8649 21.0811H91.3514V24.5946H94.8649V21.0811Z" fill="black"/>
<path d="M101.892 21.0811H98.3784V24.5946H101.892V21.0811Z" fill="black"/>
<path d="M108.919 21.0811H105.405V24.5946H108.919V21.0811Z" fill="black"/>
<path d="M112.432 21.0811H108.919V24.5946H112.432V21.0811Z" fill="black"/>
<path d="M115.946 21.0811H112.432V24.5946H115.946V21.0811Z" fill="black"/>
<path d="M119.459 21.0811H115.946V24.5946H119.459V21.0811Z" fill="black"/>
<path d="M122.973 21.0811H119.459V24.5946H122.973V21.0811Z" fill="black"/>
<path d="M126.486 21.0811H122.973V24.5946H126.486V21.0811Z" fill="black"/>
<path d="M130 21.0811H126.486V24.5946H130V21.0811Z" fill="black"/>
<path d="M38.6486 24.5946H35.1351V28.1081H38.6486V24.5946Z" fill="black"/>
<path d="M45.6757 24.5946H42.1622V28.1081H45.6757V24.5946Z" fill="black"/>
<path d="M63.2432 24.5946H59.7297L59.7297 28.1081H63.2433L63.2432 24.5946Z" fill="black"/>
<path d="M66.7568 24.5946H63.2432L63.2433 28.1081H66.7568V24.5946Z" fill="black"/>
<path d="M77.2973 24.5946H73.7838V28.1081H77.2973V24.5946Z" fill="black"/>
<path d="M80.8108 24.5946H77.2973V28.1081H80.8108V24.5946Z" fill="black"/>
<path d="M91.3514 24.5946H87.8378V28.1081H91.3514V24.5946Z" fill="black"/>
<path d="M98.3784 24.5946H94.8649V28.1081H98.3784V24.5946Z" fill="black"/>
<path d="M10.5405 28.1081H7.02703V31.6216H10.5405V28.1081Z" fill="black"/>
<path d="M14.0541 28.1081H10.5405V31.6216H14.0541V28.1081Z" fill="black"/>
<path d="M17.5676 28.1081H14.0541V31.6216H17.5676V28.1081Z" fill="black"/>
<path d="M21.0811 28.1081H17.5676V31.6216H21.0811V28.1081Z" fill="black"/>
<path d="M24.5946 28.1081H21.0811V31.6216H24.5946V28.1081Z" fill="black"/>
<path d="M28.1081 28.1081H24.5946V31.6216H28.1081V28.1081Z" fill="black"/>
<path d="M49.1892 28.1081H45.6757L45.6757 31.6216H49.1892V28.1081Z" fill="black"/>
<path d="M56.2162 28.1081H52.7027V31.6216H56.2162V28.1081Z" fill="black"/>
<path d="M59.7297 28.1081H56.2162V31.6216H59.7297L59.7297 28.1081Z" fill="black"/>
<path d="M66.7568 28.1081H63.2433L63.2432 31.6216H66.7568V28.1081Z" fill="black"/>
<path d="M80.8108 28.1081H77.2973V31.6216H80.8108V28.1081Z" fill="black"/>
<path d="M87.8378 28.1081H84.3243V31.6216H87.8378V28.1081Z" fill="black"/>
<path d="M94.8649 28.1081H91.3514V31.6216H94.8649V28.1081Z" fill="black"/>
<path d="M101.892 28.1081H98.3784V31.6216H101.892V28.1081Z" fill="black"/>
<path d="M105.405 28.1081H101.892V31.6216H105.405V28.1081Z" fill="black"/>
<path d="M112.432 28.1081H108.919V31.6216H112.432V28.1081Z" fill="black"/>
<path d="M115.946 28.1081H112.432V31.6216H115.946V28.1081Z" fill="black"/>
<path d="M119.459 28.1081H115.946V31.6216H119.459V28.1081Z" fill="black"/>
<path d="M122.973 28.1081H119.459V31.6216H122.973V28.1081Z" fill="black"/>
<path d="M130 28.1081H126.486V31.6216H130V28.1081Z" fill="black"/>
<path d="M3.51351 31.6216H0V35.1351H3.51351V31.6216Z" fill="black"/>
<path d="M7.02703 31.6216H3.51351V35.1351H7.02703V31.6216Z" fill="black"/>
<path d="M10.5405 31.6216H7.02703V35.1351H10.5405V31.6216Z" fill="black"/>
<path d="M14.0541 31.6216H10.5405V35.1351H14.0541V31.6216Z" fill="black"/>
<path d="M17.5676 31.6216H14.0541V35.1351H17.5676V31.6216Z" fill="black"/>
<path d="M21.0811 31.6216H17.5676V35.1351H21.0811V31.6216Z" fill="black"/>
<path d="M28.1081 31.6216H24.5946V35.1351H28.1081V31.6216Z" fill="black"/>
<path d="M31.6216 31.6216H28.1081V35.1351H31.6216V31.6216Z" fill="black"/>
<path d="M35.1351 31.6216H31.6216V35.1351H35.1351V31.6216Z" fill="black"/>
<path d="M38.6486 31.6216H35.1351V35.1351H38.6486V31.6216Z" fill="black"/>
<path d="M42.1622 31.6216H38.6486V35.1351H42.1622V31.6216Z" fill="black"/>
<path d="M45.6757 31.6216H42.1622V35.1351H45.6757L45.6757 31.6216Z" fill="black"/>
<path d="M49.1892 31.6216H45.6757L45.6757 35.1351H49.1892V31.6216Z" fill="black"/>
<path d="M63.2432 31.6216H59.7297L59.7297 35.1351H63.2433L63.2432 31.6216Z" fill="black"/>
<path d="M66.7568 31.6216H63.2432L63.2433 35.1351H66.7568V31.6216Z" fill="black"/>
<path d="M73.7838 31.6216H70.2703V35.1351H73.7838V31.6216Z" fill="black"/>
<path d="M87.8378 31.6216H84.3243V35.1351H87.8378V31.6216Z" fill="black"/>
<path d="M91.3514 31.6216H87.8378V35.1351H91.3514V31.6216Z" fill="black"/>
<path d="M98.3784 31.6216H94.8649V35.1351H98.3784V31.6216Z" fill="black"/>
<path d="M105.405 31.6216H101.892V35.1351H105.405V31.6216Z" fill="black"/>
<path d="M108.919 31.6216H105.405V35.1351H108.919V31.6216Z" fill="black"/>
<path d="M112.432 31.6216H108.919V35.1351H112.432V31.6216Z" fill="black"/>
<path d="M115.946 31.6216H112.432V35.1351H115.946V31.6216Z" fill="black"/>
<path d="M130 31.6216H126.486V35.1351H130V31.6216Z" fill="black"/>
<path d="M7.02703 35.1351H3.51351V38.6486H7.02703V35.1351Z" fill="black"/>
<path d="M14.0541 35.1351H10.5405V38.6486H14.0541V35.1351Z" fill="black"/>
<path d="M17.5676 35.1351H14.0541V38.6486H17.5676V35.1351Z" fill="black"/>
<path d="M21.0811 35.1351H17.5676V38.6486H21.0811V35.1351Z" fill="black"/>
<path d="M24.5946 35.1351H21.0811V38.6486H24.5946V35.1351Z" fill="black"/>
<path d="M28.1081 35.1351H24.5946V38.6486H28.1081V35.1351Z" fill="black"/>
<path d="M38.6486 35.1351H35.1351V38.6486H38.6486V35.1351Z" fill="black"/>
<path d="M42.1622 35.1351H38.6486V38.6486H42.1622V35.1351Z" fill="black"/>
<path d="M45.6757 35.1351H42.1622V38.6486H45.6757V35.1351Z" fill="black"/>
<path d="M56.2162 35.1351H52.7027V38.6486H56.2162V35.1351Z" fill="black"/>
<path d="M63.2433 35.1351H59.7297V38.6486H63.2433V35.1351Z" fill="black"/>
<path d="M66.7568 35.1351H63.2433V38.6486H66.7568V35.1351Z" fill="black"/>
<path d="M70.2703 35.1351H66.7568V38.6486H70.2703V35.1351Z" fill="black"/>
<path d="M80.8108 35.1351H77.2973V38.6486H80.8108V35.1351Z" fill="black"/>
<path d="M91.3514 35.1351H87.8378V38.6486H91.3514V35.1351Z" fill="black"/>
<path d="M101.892 35.1351H98.3784V38.6486H101.892V35.1351Z" fill="black"/>
<path d="M119.459 35.1351H115.946V38.6486H119.459V35.1351Z" fill="black"/>
<path d="M122.973 35.1351H119.459V38.6486H122.973V35.1351Z" fill="black"/>
<path d="M3.51351 38.6486H0V42.1622H3.51351V38.6486Z" fill="black"/>
<path d="M7.02703 38.6486H3.51351V42.1622H7.02703V38.6486Z" fill="black"/>
<path d="M10.5405 38.6486H7.02703V42.1622H10.5405V38.6486Z" fill="black"/>
<path d="M17.5676 38.6486H14.0541V42.1622H17.5676V38.6486Z" fill="black"/>
<path d="M21.0811 38.6486H17.5676V42.1622H21.0811V38.6486Z" fill="black"/>
<path d="M42.1622 38.6486H38.6486V42.1622H42.1622V38.6486Z" fill="black"/>
<path d="M45.6757 38.6486H42.1622V42.1622H45.6757V38.6486Z" fill="black"/>
<path d="M56.2162 38.6486H52.7027V42.1622H56.2162V38.6486Z" fill="black"/>
<path d="M59.7297 38.6486H56.2162V42.1622H59.7297L59.7297 38.6486Z" fill="black"/>
<path d="M63.2433 38.6486H59.7297L59.7297 42.1622H63.2433V38.6486Z" fill="black"/>
<path d="M70.2703 38.6486H66.7568V42.1622H70.2703V38.6486Z" fill="black"/>
<path d="M73.7838 38.6486H70.2703V42.1622H73.7838V38.6486Z" fill="black"/>
<path d="M80.8108 38.6486H77.2973V42.1622H80.8108V38.6486Z" fill="black"/>
<path d="M84.3243 38.6486H80.8108V42.1622H84.3243V38.6486Z" fill="black"/>
<path d="M87.8378 38.6486H84.3243V42.1622H87.8378V38.6486Z" fill="black"/>
<path d="M91.3514 38.6486H87.8378V42.1622H91.3514V38.6486Z" fill="black"/>
<path d="M98.3784 38.6486H94.8649V42.1622H98.3784V38.6486Z" fill="black"/>
<path d="M108.919 38.6486H105.405V42.1622H108.919V38.6486Z" fill="black"/>
<path d="M112.432 38.6486H108.919V42.1622H112.432V38.6486Z" fill="black"/>
<path d="M119.459 38.6486H115.946V42.1622H119.459V38.6486Z" fill="black"/>
<path d="M7.02703 42.1622H3.51351V45.6757H7.02703V42.1622Z" fill="black"/>
<path d="M10.5405 42.1622H7.02703V45.6757H10.5405V42.1622Z" fill="black"/>
<path d="M14.0541 42.1622H10.5405V45.6757H14.0541V42.1622Z" fill="black"/>
<path d="M24.5946 42.1622L21.0811 42.1622V45.6757H24.5946V42.1622Z" fill="black"/>
<path d="M28.1081 42.1622H24.5946V45.6757H28.1081V42.1622Z" fill="black"/>
<path d="M31.6216 42.1622H28.1081V45.6757H31.6216V42.1622Z" fill="black"/>
<path d="M35.1351 42.1622H31.6216V45.6757H35.1351V42.1622Z" fill="black"/>
<path d="M42.1622 42.1622H38.6486V45.6757H42.1622V42.1622Z" fill="black"/>
<path d="M56.2162 42.1622H52.7027V45.6757H56.2162V42.1622Z" fill="black"/>
<path d="M59.7297 42.1622H56.2162V45.6757H59.7297V42.1622Z" fill="black"/>
<path d="M66.7568 42.1622H63.2433L63.2432 45.6757H66.7568V42.1622Z" fill="black"/>
<path d="M70.2703 42.1622H66.7568V45.6757H70.2703V42.1622Z" fill="black"/>
<path d="M73.7838 42.1622H70.2703V45.6757H73.7838V42.1622Z" fill="black"/>
<path d="M87.8378 42.1622H84.3243V45.6757H87.8378V42.1622Z" fill="black"/>
<path d="M94.8649 42.1622H91.3514V45.6757H94.8649V42.1622Z" fill="black"/>
<path d="M98.3784 42.1622H94.8649V45.6757H98.3784V42.1622Z" fill="black"/>
<path d="M108.919 42.1622H105.405V45.6757H108.919V42.1622Z" fill="black"/>
<path d="M119.459 42.1622H115.946V45.6757H119.459V42.1622Z" fill="black"/>
<path d="M126.486 42.1622H122.973V45.6757H126.486V42.1622Z" fill="black"/>
<path d="M130 42.1622H126.486V45.6757H130V42.1622Z" fill="black"/>
<path d="M3.51351 45.6757L0 45.6757V49.1892H3.51351V45.6757Z" fill="black"/>
<path d="M7.02703 45.6757H3.51351V49.1892H7.02703V45.6757Z" fill="black"/>
<path d="M14.0541 45.6757H10.5405V49.1892H14.0541V45.6757Z" fill="black"/>
<path d="M21.0811 45.6757L17.5676 45.6757V49.1892H21.0811V45.6757Z" fill="black"/>
<path d="M28.1081 45.6757H24.5946V49.1892H28.1081V45.6757Z" fill="black"/>
<path d="M35.1351 45.6757H31.6216V49.1892H35.1351V45.6757Z" fill="black"/>
<path d="M42.1622 45.6757H38.6486V49.1892H42.1622V45.6757Z" fill="black"/>
<path d="M45.6757 45.6757L42.1622 45.6757V49.1892H45.6757V45.6757Z" fill="black"/>
<path d="M52.7027 45.6757L49.1892 45.6757V49.1892H52.7027L52.7027 45.6757Z" fill="black"/>
<path d="M66.7568 45.6757H63.2432V49.1892H66.7568V45.6757Z" fill="black"/>
<path d="M73.7838 45.6757H70.2703V49.1892H73.7838V45.6757Z" fill="black"/>
<path d="M80.8108 45.6757H77.2973V49.1892H80.8108V45.6757Z" fill="black"/>
<path d="M98.3784 45.6757H94.8649V49.1892H98.3784V45.6757Z" fill="black"/>
<path d="M105.405 45.6757L101.892 45.6757V49.1892H105.405V45.6757Z" fill="black"/>
<path d="M108.919 45.6757H105.405V49.1892H108.919V45.6757Z" fill="black"/>
<path d="M112.432 45.6757L108.919 45.6757V49.1892H112.432V45.6757Z" fill="black"/>
<path d="M115.946 45.6757L112.432 45.6757V49.1892H115.946V45.6757Z" fill="black"/>
<path d="M119.459 45.6757H115.946V49.1892H119.459V45.6757Z" fill="black"/>
<path d="M122.973 45.6757H119.459V49.1892H122.973V45.6757Z" fill="black"/>
<path d="M3.51351 49.1892H0V52.7027H3.51351V49.1892Z" fill="black"/>
<path d="M14.0541 49.1892H10.5405V52.7027H14.0541V49.1892Z" fill="black"/>
<path d="M17.5676 49.1892H14.0541V52.7027H17.5676V49.1892Z" fill="black"/>
<path d="M24.5946 49.1892H21.0811V52.7027H24.5946V49.1892Z" fill="black"/>
<path d="M35.1351 49.1892H31.6216V52.7027H35.1351V49.1892Z" fill="black"/>
<path d="M45.6757 49.1892H42.1622L42.1622 52.7027H45.6757V49.1892Z" fill="black"/>
<path d="M49.1892 49.1892H45.6757V52.7027H49.1892V49.1892Z" fill="black"/>
<path d="M52.7027 49.1892H49.1892V52.7027H52.7027V49.1892Z" fill="black"/>
<path d="M63.2432 49.1892H59.7297V52.7027H63.2433L63.2432 49.1892Z" fill="black"/>
<path d="M66.7568 49.1892H63.2432L63.2433 52.7027H66.7568V49.1892Z" fill="black"/>
<path d="M73.7838 49.1892H70.2703V52.7027H73.7838V49.1892Z" fill="black"/>
<path d="M77.2973 49.1892H73.7838V52.7027H77.2973V49.1892Z" fill="black"/>
<path d="M80.8108 49.1892H77.2973V52.7027H80.8108V49.1892Z" fill="black"/>
<path d="M91.3514 49.1892H87.8378V52.7027H91.3514V49.1892Z" fill="black"/>
<path d="M94.8649 49.1892H91.3514V52.7027H94.8649V49.1892Z" fill="black"/>
<path d="M98.3784 49.1892H94.8649V52.7027H98.3784V49.1892Z" fill="black"/>
<path d="M108.919 49.1892H105.405V52.7027H108.919V49.1892Z" fill="black"/>
<path d="M115.946 49.1892H112.432V52.7027H115.946V49.1892Z" fill="black"/>
<path d="M126.486 49.1892H122.973V52.7027H126.486V49.1892Z" fill="black"/>
<path d="M10.5405 52.7027L7.02703 52.7027V56.2162H10.5405V52.7027Z" fill="black"/>
<path d="M14.0541 52.7027H10.5405V56.2162H14.0541V52.7027Z" fill="black"/>
<path d="M17.5676 52.7027H14.0541V56.2162H17.5676V52.7027Z" fill="black"/>
<path d="M28.1081 52.7027L24.5946 52.7027V56.2162H28.1081V52.7027Z" fill="black"/>
<path d="M31.6216 52.7027L28.1081 52.7027V56.2162H31.6216V52.7027Z" fill="black"/>
<path d="M35.1351 52.7027H31.6216V56.2162H35.1351V52.7027Z" fill="black"/>
<path d="M52.7027 52.7027H49.1892V56.2162H52.7027V52.7027Z" fill="black"/>
<path d="M56.2162 52.7027L52.7027 52.7027V56.2162H56.2162V52.7027Z" fill="black"/>
<path d="M63.2433 52.7027H59.7297V56.2162H63.2433V52.7027Z" fill="black"/>
<path d="M66.7568 52.7027H63.2433V56.2162H66.7568V52.7027Z" fill="black"/>
<path d="M70.2703 52.7027H66.7568V56.2162H70.2703V52.7027Z" fill="black"/>
<path d="M73.7838 52.7027H70.2703V56.2162H73.7838V52.7027Z" fill="black"/>
<path d="M80.8108 52.7027H77.2973V56.2162H80.8108V52.7027Z" fill="black"/>
<path d="M84.3243 52.7027L80.8108 52.7027V56.2162H84.3243V52.7027Z" fill="black"/>
<path d="M91.3514 52.7027H87.8378V56.2162H91.3514V52.7027Z" fill="black"/>
<path d="M108.919 52.7027H105.405V56.2162H108.919V52.7027Z" fill="black"/>
<path d="M112.432 52.7027H108.919V56.2162H112.432V52.7027Z" fill="black"/>
<path d="M115.946 52.7027H112.432V56.2162H115.946V52.7027Z" fill="black"/>
<path d="M119.459 52.7027L115.946 52.7027V56.2162H119.459V52.7027Z" fill="black"/>
<path d="M122.973 52.7027L119.459 52.7027V56.2162H122.973V52.7027Z" fill="black"/>
<path d="M126.486 52.7027H122.973V56.2162H126.486V52.7027Z" fill="black"/>
<path d="M130 52.7027L126.486 52.7027V56.2162H130V52.7027Z" fill="black"/>
<path d="M3.51351 56.2162H0V59.7297H3.51351V56.2162Z" fill="black"/>
<path d="M14.0541 56.2162H10.5405V59.7297H14.0541V56.2162Z" fill="black"/>
<path d="M24.5946 56.2162L21.0811 56.2162V59.7297H24.5946V56.2162Z" fill="black"/>
<path d="M28.1081 56.2162H24.5946V59.7297H28.1081V56.2162Z" fill="black"/>
<path d="M35.1351 56.2162H31.6216V59.7297H35.1351V56.2162Z" fill="black"/>
<path d="M42.1622 56.2162H38.6486V59.7297H42.1622V56.2162Z" fill="black"/>
<path d="M52.7027 56.2162H49.1892V59.7297H52.7027V56.2162Z" fill="black"/>
<path d="M59.7297 56.2162H56.2162L56.2162 59.7297H59.7297L59.7297 56.2162Z" fill="black"/>
<path d="M66.7568 56.2162H63.2433L63.2432 59.7297H66.7568V56.2162Z" fill="black"/>
<path d="M77.2973 56.2162H73.7838V59.7297H77.2973V56.2162Z" fill="black"/>
<path d="M80.8108 56.2162H77.2973V59.7297H80.8108V56.2162Z" fill="black"/>
<path d="M84.3243 56.2162H80.8108V59.7297H84.3243V56.2162Z" fill="black"/>
<path d="M91.3514 56.2162H87.8378V59.7297H91.3514V56.2162Z" fill="black"/>
<path d="M98.3784 56.2162H94.8649V59.7297H98.3784V56.2162Z" fill="black"/>
<path d="M108.919 56.2162H105.405V59.7297H108.919V56.2162Z" fill="black"/>
<path d="M115.946 56.2162H112.432V59.7297H115.946V56.2162Z" fill="black"/>
<path d="M122.973 56.2162H119.459V59.7297H122.973V56.2162Z" fill="black"/>
<path d="M3.51351 59.7297H0V63.2433H3.51351V59.7297Z" fill="black"/>
<path d="M14.0541 59.7297H10.5405V63.2433H14.0541V59.7297Z" fill="black"/>
<path d="M35.1351 59.7297H31.6216V63.2433H35.1351V59.7297Z" fill="black"/>
<path d="M38.6486 59.7297H35.1351V63.2433H38.6486V59.7297Z" fill="black"/>
<path d="M45.6757 59.7297L42.1622 59.7297L42.1622 63.2433H45.6757V59.7297Z" fill="black"/>
<path d="M49.1892 59.7297L45.6757 59.7297V63.2433H49.1892V59.7297Z" fill="black"/>
<path d="M52.7027 59.7297H49.1892V63.2433H52.7027V59.7297Z" fill="black"/>
<path d="M56.2162 59.7297H52.7027V63.2433H56.2162L56.2162 59.7297Z" fill="black"/>
<path d="M63.2432 59.7297H59.7297L59.7297 63.2433H63.2433L63.2432 59.7297Z" fill="black"/>
<path d="M73.7838 59.7297L70.2703 59.7297V63.2433H73.7838V59.7297Z" fill="black"/>
<path d="M91.3514 59.7297H87.8378V63.2433H91.3514V59.7297Z" fill="black"/>
<path d="M94.8649 59.7297H91.3514V63.2433H94.8649V59.7297Z" fill="black"/>
<path d="M101.892 59.7297L98.3784 59.7297V63.2433H101.892V59.7297Z" fill="black"/>
<path d="M105.405 59.7297L101.892 59.7297V63.2433H105.405V59.7297Z" fill="black"/>
<path d="M108.919 59.7297H105.405V63.2433H108.919V59.7297Z" fill="black"/>
<path d="M112.432 59.7297H108.919V63.2433H112.432V59.7297Z" fill="black"/>
<path d="M130 59.7297H126.486V63.2433H130V59.7297Z" fill="black"/>
<path d="M3.51351 63.2433H0V66.7568H3.51351V63.2433Z" fill="black"/>
<path d="M17.5676 63.2432L14.0541 63.2433V66.7568H17.5676V63.2432Z" fill="black"/>
<path d="M21.0811 63.2432H17.5676V66.7568H21.0811V63.2432Z" fill="black"/>
<path d="M24.5946 63.2432H21.0811V66.7568H24.5946V63.2432Z" fill="black"/>
<path d="M31.6216 63.2433L28.1081 63.2432V66.7568H31.6216V63.2433Z" fill="black"/>
<path d="M49.1892 63.2433H45.6757L45.6757 66.7568H49.1892V63.2433Z" fill="black"/>
<path d="M56.2162 63.2433H52.7027L52.7027 66.7568H56.2162V63.2433Z" fill="black"/>
<path d="M63.2433 63.2433H59.7297V66.7568H63.2433V63.2433Z" fill="black"/>
<path d="M66.7568 63.2432L63.2433 63.2433V66.7568H66.7568V63.2432Z" fill="black"/>
<path d="M70.2703 63.2433L66.7568 63.2432V66.7568H70.2703V63.2433Z" fill="black"/>
<path d="M77.2973 63.2432L73.7838 63.2433V66.7568H77.2973V63.2432Z" fill="black"/>
<path d="M80.8108 63.2432H77.2973V66.7568H80.8108V63.2432Z" fill="black"/>
<path d="M87.8378 63.2433L84.3243 63.2432V66.7568H87.8378V63.2433Z" fill="black"/>
<path d="M112.432 63.2433H108.919V66.7568H112.432V63.2433Z" fill="black"/>
<path d="M119.459 63.2432H115.946V66.7568H119.459V63.2432Z" fill="black"/>
<path d="M126.486 63.2433L122.973 63.2432V66.7568H126.486V63.2433Z" fill="black"/>
<path d="M7.02703 66.7568H3.51351V70.2703H7.02703V66.7568Z" fill="black"/>
<path d="M10.5405 66.7568H7.02703V70.2703H10.5405V66.7568Z" fill="black"/>
<path d="M14.0541 66.7568H10.5405V70.2703H14.0541V66.7568Z" fill="black"/>
<path d="M17.5676 66.7568H14.0541V70.2703H17.5676V66.7568Z" fill="black"/>
<path d="M28.1081 66.7568H24.5946V70.2703H28.1081V66.7568Z" fill="black"/>
<path d="M49.1892 66.7568H45.6757V70.2703H49.1892V66.7568Z" fill="black"/>
<path d="M59.7297 66.7568H56.2162L56.2162 70.2703H59.7297L59.7297 66.7568Z" fill="black"/>
<path d="M66.7568 66.7568H63.2433L63.2432 70.2703H66.7568V66.7568Z" fill="black"/>
<path d="M70.2703 66.7568H66.7568V70.2703H70.2703V66.7568Z" fill="black"/>
<path d="M73.7838 66.7568H70.2703V70.2703H73.7838V66.7568Z" fill="black"/>
<path d="M77.2973 66.7568H73.7838V70.2703H77.2973V66.7568Z" fill="black"/>
<path d="M105.405 66.7568H101.892V70.2703H105.405V66.7568Z" fill="black"/>
<path d="M112.432 66.7568H108.919V70.2703H112.432V66.7568Z" fill="black"/>
<path d="M115.946 66.7568H112.432V70.2703H115.946V66.7568Z" fill="black"/>
<path d="M122.973 66.7568H119.459V70.2703H122.973V66.7568Z" fill="black"/>
<path d="M126.486 66.7568H122.973V70.2703H126.486V66.7568Z" fill="black"/>
<path d="M130 66.7568H126.486V70.2703H130V66.7568Z" fill="black"/>
<path d="M3.51351 70.2703H0V73.7838H3.51351V70.2703Z" fill="black"/>
<path d="M10.5405 70.2703H7.02703V73.7838H10.5405V70.2703Z" fill="black"/>
<path d="M24.5946 70.2703H21.0811V73.7838H24.5946V70.2703Z" fill="black"/>
<path d="M28.1081 70.2703H24.5946V73.7838H28.1081V70.2703Z" fill="black"/>
<path d="M31.6216 70.2703H28.1081V73.7838H31.6216V70.2703Z" fill="black"/>
<path d="M38.6486 70.2703H35.1351V73.7838H38.6486V70.2703Z" fill="black"/>
<path d="M45.6757 70.2703H42.1622V73.7838H45.6757L45.6757 70.2703Z" fill="black"/>
<path d="M49.1892 70.2703H45.6757L45.6757 73.7838H49.1892V70.2703Z" fill="black"/>
<path d="M52.7027 70.2703H49.1892V73.7838H52.7027V70.2703Z" fill="black"/>
<path d="M63.2432 70.2703H59.7297L59.7297 73.7838H63.2433L63.2432 70.2703Z" fill="black"/>
<path d="M70.2703 70.2703H66.7568V73.7838H70.2703V70.2703Z" fill="black"/>
<path d="M77.2973 70.2703H73.7838V73.7838H77.2973V70.2703Z" fill="black"/>
<path d="M84.3243 70.2703H80.8108V73.7838H84.3243V70.2703Z" fill="black"/>
<path d="M87.8378 70.2703H84.3243V73.7838H87.8378V70.2703Z" fill="black"/>
<path d="M94.8649 70.2703H91.3514V73.7838H94.8649V70.2703Z" fill="black"/>
<path d="M101.892 70.2703H98.3784V73.7838H101.892V70.2703Z" fill="black"/>
<path d="M105.405 70.2703H101.892V73.7838H105.405V70.2703Z" fill="black"/>
<path d="M108.919 70.2703H105.405V73.7838H108.919V70.2703Z" fill="black"/>
<path d="M119.459 70.2703H115.946V73.7838H119.459V70.2703Z" fill="black"/>
<path d="M126.486 70.2703H122.973V73.7838H126.486V70.2703Z" fill="black"/>
<path d="M10.5405 73.7838H7.02703V77.2973H10.5405V73.7838Z" fill="black"/>
<path d="M28.1081 73.7838H24.5946V77.2973H28.1081V73.7838Z" fill="black"/>
<path d="M38.6486 73.7838H35.1351V77.2973H38.6486V73.7838Z" fill="black"/>
<path d="M42.1622 73.7838H38.6486V77.2973H42.1622L42.1622 73.7838Z" fill="black"/>
<path d="M52.7027 73.7838H49.1892V77.2973H52.7027V73.7838Z" fill="black"/>
<path d="M56.2162 73.7838H52.7027V77.2973H56.2162V73.7838Z" fill="black"/>
<path d="M70.2703 73.7838H66.7568V77.2973H70.2703V73.7838Z" fill="black"/>
<path d="M77.2973 73.7838H73.7838V77.2973H77.2973V73.7838Z" fill="black"/>
<path d="M80.8108 73.7838H77.2973V77.2973H80.8108V73.7838Z" fill="black"/>
<path d="M84.3243 73.7838H80.8108V77.2973H84.3243V73.7838Z" fill="black"/>
<path d="M91.3514 73.7838H87.8378V77.2973H91.3514V73.7838Z" fill="black"/>
<path d="M94.8649 73.7838H91.3514V77.2973H94.8649V73.7838Z" fill="black"/>
<path d="M98.3784 73.7838H94.8649V77.2973H98.3784V73.7838Z" fill="black"/>
<path d="M112.432 73.7838H108.919V77.2973H112.432V73.7838Z" fill="black"/>
<path d="M115.946 73.7838H112.432V77.2973H115.946V73.7838Z" fill="black"/>
<path d="M119.459 73.7838H115.946V77.2973H119.459V73.7838Z" fill="black"/>
<path d="M122.973 73.7838H119.459V77.2973H122.973V73.7838Z" fill="black"/>
<path d="M126.486 73.7838H122.973V77.2973H126.486V73.7838Z" fill="black"/>
<path d="M7.02703 77.2973H3.51351V80.8108H7.02703V77.2973Z" fill="black"/>
<path d="M10.5405 77.2973H7.02703V80.8108H10.5405V77.2973Z" fill="black"/>
<path d="M14.0541 77.2973H10.5405V80.8108H14.0541V77.2973Z" fill="black"/>
<path d="M21.0811 77.2973H17.5676V80.8108H21.0811V77.2973Z" fill="black"/>
<path d="M24.5946 77.2973H21.0811V80.8108H24.5946V77.2973Z" fill="black"/>
<path d="M28.1081 77.2973H24.5946V80.8108H28.1081V77.2973Z" fill="black"/>
<path d="M31.6216 77.2973H28.1081V80.8108H31.6216V77.2973Z" fill="black"/>
<path d="M45.6757 77.2973H42.1622L42.1622 80.8108H45.6757V77.2973Z" fill="black"/>
<path d="M56.2162 77.2973H52.7027L52.7027 80.8108H56.2162V77.2973Z" fill="black"/>
<path d="M59.7297 77.2973H56.2162V80.8108H59.7297V77.2973Z" fill="black"/>
<path d="M66.7568 77.2973H63.2432V80.8108H66.7568V77.2973Z" fill="black"/>
<path d="M70.2703 77.2973H66.7568V80.8108H70.2703V77.2973Z" fill="black"/>
<path d="M73.7838 77.2973H70.2703V80.8108H73.7838V77.2973Z" fill="black"/>
<path d="M77.2973 77.2973H73.7838V80.8108H77.2973V77.2973Z" fill="black"/>
<path d="M80.8108 77.2973H77.2973V80.8108H80.8108V77.2973Z" fill="black"/>
<path d="M94.8649 77.2973H91.3514V80.8108H94.8649V77.2973Z" fill="black"/>
<path d="M101.892 77.2973H98.3784V80.8108H101.892V77.2973Z" fill="black"/>
<path d="M108.919 77.2973H105.405V80.8108H108.919V77.2973Z" fill="black"/>
<path d="M112.432 77.2973H108.919V80.8108H112.432V77.2973Z" fill="black"/>
<path d="M126.486 77.2973H122.973V80.8108H126.486V77.2973Z" fill="black"/>
<path d="M130 77.2973H126.486V80.8108H130V77.2973Z" fill="black"/>
<path d="M3.51351 80.8108H0V84.3243H3.51351V80.8108Z" fill="black"/>
<path d="M10.5405 80.8108H7.02703V84.3243H10.5405V80.8108Z" fill="black"/>
<path d="M17.5676 80.8108H14.0541V84.3243H17.5676V80.8108Z" fill="black"/>
<path d="M28.1081 80.8108H24.5946V84.3243H28.1081V80.8108Z" fill="black"/>
<path d="M31.6216 80.8108H28.1081V84.3243H31.6216V80.8108Z" fill="black"/>
<path d="M35.1351 80.8108H31.6216V84.3243H35.1351V80.8108Z" fill="black"/>
<path d="M49.1892 80.8108H45.6757L45.6757 84.3243H49.1892V80.8108Z" fill="black"/>
<path d="M63.2432 80.8108H59.7297L59.7297 84.3243H63.2433L63.2432 80.8108Z" fill="black"/>
<path d="M70.2703 80.8108H66.7568V84.3243H70.2703V80.8108Z" fill="black"/>
<path d="M73.7838 80.8108H70.2703V84.3243H73.7838V80.8108Z" fill="black"/>
<path d="M77.2973 80.8108H73.7838V84.3243H77.2973V80.8108Z" fill="black"/>
<path d="M84.3243 80.8108H80.8108V84.3243H84.3243V80.8108Z" fill="black"/>
<path d="M91.3514 80.8108H87.8378V84.3243H91.3514V80.8108Z" fill="black"/>
<path d="M105.405 80.8108H101.892V84.3243H105.405V80.8108Z" fill="black"/>
<path d="M112.432 80.8108H108.919V84.3243H112.432V80.8108Z" fill="black"/>
<path d="M115.946 80.8108H112.432V84.3243H115.946V80.8108Z" fill="black"/>
<path d="M119.459 80.8108H115.946V84.3243H119.459V80.8108Z" fill="black"/>
<path d="M126.486 80.8108H122.973V84.3243H126.486V80.8108Z" fill="black"/>
<path d="M130 80.8108H126.486V84.3243H130V80.8108Z" fill="black"/>
<path d="M7.02703 84.3243H3.51351V87.8378H7.02703V84.3243Z" fill="black"/>
<path d="M10.5405 84.3243H7.02703V87.8378H10.5405V84.3243Z" fill="black"/>
<path d="M14.0541 84.3243H10.5405V87.8378H14.0541V84.3243Z" fill="black"/>
<path d="M24.5946 84.3243H21.0811V87.8378H24.5946V84.3243Z" fill="black"/>
<path d="M38.6486 84.3243H35.1351V87.8378H38.6486V84.3243Z" fill="black"/>
<path d="M45.6757 84.3243H42.1622V87.8378H45.6757L45.6757 84.3243Z" fill="black"/>
<path d="M49.1892 84.3243H45.6757L45.6757 87.8378H49.1892V84.3243Z" fill="black"/>
<path d="M59.7297 84.3243H56.2162V87.8378H59.7297L59.7297 84.3243Z" fill="black"/>
<path d="M66.7568 84.3243H63.2433L63.2432 87.8378H66.7568V84.3243Z" fill="black"/>
<path d="M80.8108 84.3243H77.2973V87.8378H80.8108V84.3243Z" fill="black"/>
<path d="M84.3243 84.3243H80.8108V87.8378H84.3243V84.3243Z" fill="black"/>
<path d="M87.8378 84.3243H84.3243V87.8378H87.8378V84.3243Z" fill="black"/>
<path d="M98.3784 84.3243H94.8649V87.8378H98.3784V84.3243Z" fill="black"/>
<path d="M115.946 84.3243H112.432V87.8378H115.946V84.3243Z" fill="black"/>
<path d="M122.973 84.3243H119.459V87.8378H122.973V84.3243Z" fill="black"/>
<path d="M130 84.3243H126.486V87.8378H130V84.3243Z" fill="black"/>
<path d="M3.51351 87.8378H0V91.3514H3.51351V87.8378Z" fill="black"/>
<path d="M7.02703 87.8378H3.51351V91.3514H7.02703V87.8378Z" fill="black"/>
<path d="M14.0541 87.8378H10.5405V91.3514H14.0541V87.8378Z" fill="black"/>
<path d="M17.5676 87.8378H14.0541V91.3514H17.5676V87.8378Z" fill="black"/>
<path d="M21.0811 87.8378H17.5676V91.3514H21.0811V87.8378Z" fill="black"/>
<path d="M31.6216 87.8378H28.1081V91.3514H31.6216V87.8378Z" fill="black"/>
<path d="M35.1351 87.8378H31.6216V91.3514H35.1351V87.8378Z" fill="black"/>
<path d="M38.6486 87.8378H35.1351V91.3514H38.6486V87.8378Z" fill="black"/>
<path d="M45.6757 87.8378H42.1622V91.3514H45.6757V87.8378Z" fill="black"/>
<path d="M59.7297 87.8378H56.2162V91.3514H59.7297V87.8378Z" fill="black"/>
<path d="M66.7568 87.8378H63.2432V91.3514H66.7568V87.8378Z" fill="black"/>
<path d="M73.7838 87.8378H70.2703V91.3514H73.7838V87.8378Z" fill="black"/>
<path d="M77.2973 87.8378H73.7838V91.3514H77.2973V87.8378Z" fill="black"/>
<path d="M87.8378 87.8378H84.3243V91.3514H87.8378V87.8378Z" fill="black"/>
<path d="M91.3514 87.8378H87.8378V91.3514H91.3514V87.8378Z" fill="black"/>
<path d="M94.8649 87.8378H91.3514V91.3514H94.8649V87.8378Z" fill="black"/>
<path d="M101.892 87.8378H98.3784V91.3514H101.892V87.8378Z" fill="black"/>
<path d="M108.919 87.8378H105.405V91.3514H108.919V87.8378Z" fill="black"/>
<path d="M115.946 87.8378H112.432V91.3514H115.946V87.8378Z" fill="black"/>
<path d="M119.459 87.8378H115.946V91.3514H119.459V87.8378Z" fill="black"/>
<path d="M130 87.8378H126.486V91.3514H130V87.8378Z" fill="black"/>
<path d="M7.02703 91.3514H3.51351V94.8649H7.02703V91.3514Z" fill="black"/>
<path d="M10.5405 91.3514H7.02703V94.8649H10.5405V91.3514Z" fill="black"/>
<path d="M24.5946 91.3514H21.0811V94.8649H24.5946V91.3514Z" fill="black"/>
<path d="M28.1081 91.3514H24.5946V94.8649H28.1081V91.3514Z" fill="black"/>
<path d="M31.6216 91.3514H28.1081V94.8649H31.6216V91.3514Z" fill="black"/>
<path d="M35.1351 91.3514H31.6216V94.8649H35.1351V91.3514Z" fill="black"/>
<path d="M38.6486 91.3514H35.1351V94.8649H38.6486V91.3514Z" fill="black"/>
<path d="M45.6757 91.3514H42.1622V94.8649H45.6757V91.3514Z" fill="black"/>
<path d="M52.7027 91.3514H49.1892V94.8649H52.7027V91.3514Z" fill="black"/>
<path d="M59.7297 91.3514H56.2162V94.8649H59.7297V91.3514Z" fill="black"/>
<path d="M70.2703 91.3514H66.7568V94.8649H70.2703V91.3514Z" fill="black"/>
<path d="M73.7838 91.3514H70.2703V94.8649H73.7838V91.3514Z" fill="black"/>
<path d="M84.3243 91.3514H80.8108V94.8649H84.3243V91.3514Z" fill="black"/>
<path d="M87.8378 91.3514H84.3243V94.8649H87.8378V91.3514Z" fill="black"/>
<path d="M91.3514 91.3514H87.8378V94.8649H91.3514V91.3514Z" fill="black"/>
<path d="M94.8649 91.3514H91.3514V94.8649H94.8649V91.3514Z" fill="black"/>
<path d="M98.3784 91.3514H94.8649V94.8649H98.3784V91.3514Z" fill="black"/>
<path d="M101.892 91.3514H98.3784V94.8649H101.892V91.3514Z" fill="black"/>
<path d="M108.919 91.3514H105.405V94.8649H108.919V91.3514Z" fill="black"/>
<path d="M122.973 91.3514H119.459V94.8649H122.973V91.3514Z" fill="black"/>
<path d="M126.486 91.3514H122.973V94.8649H126.486V91.3514Z" fill="black"/>
<path d="M7.02703 94.8649H3.51351V98.3784H7.02703V94.8649Z" fill="black"/>
<path d="M10.5405 94.8649H7.02703V98.3784H10.5405V94.8649Z" fill="black"/>
<path d="M14.0541 94.8649H10.5405V98.3784H14.0541V94.8649Z" fill="black"/>
<path d="M21.0811 94.8649H17.5676V98.3784H21.0811V94.8649Z" fill="black"/>
<path d="M31.6216 94.8649H28.1081V98.3784H31.6216V94.8649Z" fill="black"/>
<path d="M38.6486 94.8649H35.1351V98.3784H38.6486V94.8649Z" fill="black"/>
<path d="M42.1622 94.8649H38.6486V98.3784H42.1622L42.1622 94.8649Z" fill="black"/>
<path d="M45.6757 94.8649H42.1622L42.1622 98.3784H45.6757V94.8649Z" fill="black"/>
<path d="M52.7027 94.8649H49.1892V98.3784H52.7027V94.8649Z" fill="black"/>
<path d="M56.2162 94.8649H52.7027V98.3784H56.2162L56.2162 94.8649Z" fill="black"/>
<path d="M66.7568 94.8649H63.2432V98.3784H66.7568V94.8649Z" fill="black"/>
<path d="M80.8108 94.8649H77.2973V98.3784H80.8108V94.8649Z" fill="black"/>
<path d="M94.8649 94.8649H91.3514V98.3784H94.8649V94.8649Z" fill="black"/>
<path d="M98.3784 94.8649H94.8649V98.3784H98.3784V94.8649Z" fill="black"/>
<path d="M105.405 94.8649H101.892V98.3784H105.405V94.8649Z" fill="black"/>
<path d="M115.946 94.8649H112.432V98.3784H115.946V94.8649Z" fill="black"/>
<path d="M122.973 94.8649H119.459V98.3784H122.973V94.8649Z" fill="black"/>
<path d="M126.486 94.8649H122.973V98.3784H126.486V94.8649Z" fill="black"/>
<path d="M3.51351 98.3784H0V101.892H3.51351V98.3784Z" fill="black"/>
<path d="M7.02703 98.3784H3.51351V101.892H7.02703V98.3784Z" fill="black"/>
<path d="M17.5676 98.3784H14.0541V101.892H17.5676V98.3784Z" fill="black"/>
<path d="M24.5946 98.3784H21.0811V101.892H24.5946V98.3784Z" fill="black"/>
<path d="M35.1351 98.3784H31.6216V101.892H35.1351V98.3784Z" fill="black"/>
<path d="M42.1622 98.3784H38.6486V101.892H42.1622V98.3784Z" fill="black"/>
<path d="M49.1892 98.3784H45.6757L45.6757 101.892H49.1892V98.3784Z" fill="black"/>
<path d="M52.7027 98.3784H49.1892V101.892H52.7027V98.3784Z" fill="black"/>
<path d="M56.2162 98.3784H52.7027V101.892H56.2162V98.3784Z" fill="black"/>
<path d="M59.7297 98.3784H56.2162V101.892H59.7297V98.3784Z" fill="black"/>
<path d="M63.2432 98.3784H59.7297V101.892H63.2433L63.2432 98.3784Z" fill="black"/>
<path d="M66.7568 98.3784H63.2432L63.2433 101.892H66.7568V98.3784Z" fill="black"/>
<path d="M70.2703 98.3784H66.7568V101.892H70.2703V98.3784Z" fill="black"/>
<path d="M77.2973 98.3784H73.7838V101.892H77.2973V98.3784Z" fill="black"/>
<path d="M80.8108 98.3784H77.2973V101.892H80.8108V98.3784Z" fill="black"/>
<path d="M84.3243 98.3784H80.8108V101.892H84.3243V98.3784Z" fill="black"/>
<path d="M91.3514 98.3784H87.8378V101.892H91.3514V98.3784Z" fill="black"/>
<path d="M101.892 98.3784H98.3784V101.892H101.892V98.3784Z" fill="black"/>
<path d="M105.405 98.3784H101.892V101.892H105.405V98.3784Z" fill="black"/>
<path d="M108.919 98.3784H105.405V101.892H108.919V98.3784Z" fill="black"/>
<path d="M112.432 98.3784H108.919V101.892H112.432V98.3784Z" fill="black"/>
<path d="M115.946 98.3784H112.432V101.892H115.946V98.3784Z" fill="black"/>
<path d="M119.459 98.3784H115.946V101.892H119.459V98.3784Z" fill="black"/>
<path d="M126.486 98.3784H122.973V101.892H126.486V98.3784Z" fill="black"/>
<path d="M35.1351 101.892H31.6216V105.405H35.1351V101.892Z" fill="black"/>
<path d="M42.1622 101.892H38.6486V105.405H42.1622V101.892Z" fill="black"/>
<path d="M45.6757 101.892H42.1622V105.405H45.6757L45.6757 101.892Z" fill="black"/>
<path d="M49.1892 101.892H45.6757L45.6757 105.405H49.1892V101.892Z" fill="black"/>
<path d="M52.7027 101.892H49.1892V105.405H52.7027V101.892Z" fill="black"/>
<path d="M56.2162 101.892H52.7027V105.405H56.2162V101.892Z" fill="black"/>
<path d="M73.7838 101.892H70.2703V105.405H73.7838V101.892Z" fill="black"/>
<path d="M80.8108 101.892H77.2973V105.405H80.8108V101.892Z" fill="black"/>
<path d="M87.8378 101.892H84.3243V105.405H87.8378V101.892Z" fill="black"/>
<path d="M98.3784 101.892H94.8649V105.405H98.3784V101.892Z" fill="black"/>
<path d="M101.892 101.892H98.3784V105.405H101.892V101.892Z" fill="black"/>
<path d="M115.946 101.892H112.432V105.405H115.946V101.892Z" fill="black"/>
<path d="M119.459 101.892H115.946V105.405H119.459V101.892Z" fill="black"/>
<path d="M126.486 101.892H122.973V105.405H126.486V101.892Z" fill="black"/>
<path d="M130 101.892H126.486V105.405H130V101.892Z" fill="black"/>
<path d="M3.51351 105.405H0V108.919H3.51351V105.405Z" fill="black"/>
<path d="M7.02703 105.405H3.51351V108.919H7.02703V105.405Z" fill="black"/>
<path d="M10.5405 105.405H7.02703V108.919H10.5405V105.405Z" fill="black"/>
<path d="M14.0541 105.405H10.5405V108.919H14.0541V105.405Z" fill="black"/>
<path d="M17.5676 105.405H14.0541V108.919H17.5676V105.405Z" fill="black"/>
<path d="M21.0811 105.405H17.5676V108.919H21.0811V105.405Z" fill="black"/>
<path d="M24.5946 105.405H21.0811V108.919H24.5946V105.405Z" fill="black"/>
<path d="M31.6216 105.405H28.1081V108.919H31.6216V105.405Z" fill="black"/>
<path d="M38.6486 105.405H35.1351V108.919H38.6486V105.405Z" fill="black"/>
<path d="M42.1622 105.405H38.6486V108.919H42.1622V105.405Z" fill="black"/>
<path d="M45.6757 105.405H42.1622V108.919H45.6757V105.405Z" fill="black"/>
<path d="M52.7027 105.405H49.1892V108.919H52.7027V105.405Z" fill="black"/>
<path d="M56.2162 105.405H52.7027V108.919H56.2162V105.405Z" fill="black"/>
<path d="M59.7297 105.405H56.2162V108.919H59.7297V105.405Z" fill="black"/>
<path d="M66.7568 105.405H63.2432V108.919H66.7568V105.405Z" fill="black"/>
<path d="M70.2703 105.405H66.7568V108.919H70.2703V105.405Z" fill="black"/>
<path d="M73.7838 105.405H70.2703V108.919H73.7838V105.405Z" fill="black"/>
<path d="M87.8378 105.405H84.3243V108.919H87.8378V105.405Z" fill="black"/>
<path d="M101.892 105.405H98.3784V108.919H101.892V105.405Z" fill="black"/>
<path d="M108.919 105.405H105.405V108.919H108.919V105.405Z" fill="black"/>
<path d="M115.946 105.405H112.432V108.919H115.946V105.405Z" fill="black"/>
<path d="M119.459 105.405H115.946V108.919H119.459V105.405Z" fill="black"/>
<path d="M3.51351 108.919H0V112.432H3.51351V108.919Z" fill="black"/>
<path d="M24.5946 108.919H21.0811V112.432H24.5946V108.919Z" fill="black"/>
<path d="M31.6216 108.919H28.1081V112.432H31.6216V108.919Z" fill="black"/>
<path d="M35.1351 108.919H31.6216V112.432H35.1351V108.919Z" fill="black"/>
<path d="M49.1892 108.919H45.6757L45.6757 112.432H49.1892V108.919Z" fill="black"/>
<path d="M52.7027 108.919H49.1892V112.432H52.7027V108.919Z" fill="black"/>
<path d="M56.2162 108.919H52.7027V112.432H56.2162V108.919Z" fill="black"/>
<path d="M59.7297 108.919H56.2162V112.432H59.7297V108.919Z" fill="black"/>
<path d="M63.2432 108.919H59.7297V112.432H63.2433L63.2432 108.919Z" fill="black"/>
<path d="M66.7568 108.919H63.2432L63.2433 112.432H66.7568V108.919Z" fill="black"/>
<path d="M70.2703 108.919H66.7568V112.432H70.2703V108.919Z" fill="black"/>
<path d="M80.8108 108.919H77.2973V112.432H80.8108V108.919Z" fill="black"/>
<path d="M84.3243 108.919H80.8108V112.432H84.3243V108.919Z" fill="black"/>
<path d="M94.8649 108.919H91.3514V112.432H94.8649V108.919Z" fill="black"/>
<path d="M101.892 108.919H98.3784V112.432H101.892V108.919Z" fill="black"/>
<path d="M115.946 108.919H112.432V112.432H115.946V108.919Z" fill="black"/>
<path d="M3.51351 112.432H0V115.946H3.51351V112.432Z" fill="black"/>
<path d="M10.5405 112.432H7.02703V115.946H10.5405V112.432Z" fill="black"/>
<path d="M14.0541 112.432H10.5405V115.946H14.0541V112.432Z" fill="black"/>
<path d="M17.5676 112.432H14.0541V115.946H17.5676V112.432Z" fill="black"/>
<path d="M24.5946 112.432H21.0811V115.946H24.5946V112.432Z" fill="black"/>
<path d="M31.6216 112.432H28.1081V115.946H31.6216V112.432Z" fill="black"/>
<path d="M38.6486 112.432H35.1351V115.946H38.6486V112.432Z" fill="black"/>
<path d="M45.6757 112.432H42.1622V115.946H45.6757L45.6757 112.432Z" fill="black"/>
<path d="M52.7027 112.432H49.1892V115.946H52.7027V112.432Z" fill="black"/>
<path d="M56.2162 112.432H52.7027V115.946H56.2162V112.432Z" fill="black"/>
<path d="M59.7297 112.432H56.2162V115.946H59.7297V112.432Z" fill="black"/>
<path d="M66.7568 112.432H63.2433L63.2432 115.946H66.7568V112.432Z" fill="black"/>
<path d="M70.2703 112.432H66.7568V115.946H70.2703V112.432Z" fill="black"/>
<path d="M73.7838 112.432H70.2703V115.946H73.7838V112.432Z" fill="black"/>
<path d="M80.8108 112.432H77.2973V115.946H80.8108V112.432Z" fill="black"/>
<path d="M84.3243 112.432H80.8108V115.946H84.3243V112.432Z" fill="black"/>
<path d="M87.8378 112.432H84.3243V115.946H87.8378V112.432Z" fill="black"/>
<path d="M101.892 112.432H98.3784V115.946H101.892V112.432Z" fill="black"/>
<path d="M105.405 112.432H101.892V115.946H105.405V112.432Z" fill="black"/>
<path d="M108.919 112.432H105.405V115.946H108.919V112.432Z" fill="black"/>
<path d="M112.432 112.432H108.919V115.946H112.432V112.432Z" fill="black"/>
<path d="M115.946 112.432H112.432V115.946H115.946V112.432Z" fill="black"/>
<path d="M119.459 112.432H115.946V115.946H119.459V112.432Z" fill="black"/>
<path d="M126.486 112.432H122.973V115.946H126.486V112.432Z" fill="black"/>
<path d="M130 112.432H126.486V115.946H130V112.432Z" fill="black"/>
<path d="M3.51351 115.946H0V119.459H3.51351V115.946Z" fill="black"/>
<path d="M10.5405 115.946H7.02703V119.459H10.5405V115.946Z" fill="black"/>
<path d="M14.0541 115.946H10.5405V119.459H14.0541V115.946Z" fill="black"/>
<path d="M17.5676 115.946H14.0541V119.459H17.5676V115.946Z" fill="black"/>
<path d="M24.5946 115.946H21.0811V119.459H24.5946V115.946Z" fill="black"/>
<path d="M31.6216 115.946H28.1081V119.459H31.6216V115.946Z" fill="black"/>
<path d="M35.1351 115.946H31.6216V119.459H35.1351V115.946Z" fill="black"/>
<path d="M38.6486 115.946H35.1351V119.459H38.6486V115.946Z" fill="black"/>
<path d="M45.6757 115.946H42.1622V119.459H45.6757V115.946Z" fill="black"/>
<path d="M52.7027 115.946H49.1892V119.459H52.7027V115.946Z" fill="black"/>
<path d="M63.2432 115.946H59.7297L59.7297 119.459H63.2433L63.2432 115.946Z" fill="black"/>
<path d="M73.7838 115.946H70.2703V119.459H73.7838V115.946Z" fill="black"/>
<path d="M77.2973 115.946H73.7838V119.459H77.2973V115.946Z" fill="black"/>
<path d="M80.8108 115.946H77.2973V119.459H80.8108V115.946Z" fill="black"/>
<path d="M94.8649 115.946H91.3514V119.459H94.8649V115.946Z" fill="black"/>
<path d="M101.892 115.946H98.3784V119.459H101.892V115.946Z" fill="black"/>
<path d="M105.405 115.946H101.892V119.459H105.405V115.946Z" fill="black"/>
<path d="M112.432 115.946H108.919V119.459H112.432V115.946Z" fill="black"/>
<path d="M119.459 115.946H115.946V119.459H119.459V115.946Z" fill="black"/>
<path d="M130 115.946H126.486V119.459H130V115.946Z" fill="black"/>
<path d="M3.51351 119.459H0V122.973H3.51351V119.459Z" fill="black"/>
<path d="M10.5405 119.459H7.02703V122.973H10.5405V119.459Z" fill="black"/>
<path d="M14.0541 119.459H10.5405V122.973H14.0541V119.459Z" fill="black"/>
<path d="M17.5676 119.459H14.0541V122.973H17.5676V119.459Z" fill="black"/>
<path d="M24.5946 119.459H21.0811V122.973H24.5946V119.459Z" fill="black"/>
<path d="M31.6216 119.459H28.1081V122.973H31.6216V119.459Z" fill="black"/>
<path d="M38.6486 119.459H35.1351V122.973H38.6486V119.459Z" fill="black"/>
<path d="M45.6757 119.459H42.1622V122.973H45.6757V119.459Z" fill="black"/>
<path d="M59.7297 119.459H56.2162V122.973H59.7297L59.7297 119.459Z" fill="black"/>
<path d="M73.7838 119.459H70.2703V122.973H73.7838V119.459Z" fill="black"/>
<path d="M87.8378 119.459H84.3243V122.973H87.8378V119.459Z" fill="black"/>
<path d="M91.3514 119.459H87.8378V122.973H91.3514V119.459Z" fill="black"/>
<path d="M101.892 119.459H98.3784V122.973H101.892V119.459Z" fill="black"/>
<path d="M108.919 119.459H105.405V122.973H108.919V119.459Z" fill="black"/>
<path d="M115.946 119.459H112.432V122.973H115.946V119.459Z" fill="black"/>
<path d="M119.459 119.459H115.946V122.973H119.459V119.459Z" fill="black"/>
<path d="M122.973 119.459H119.459V122.973H122.973V119.459Z" fill="black"/>
<path d="M130 119.459H126.486V122.973H130V119.459Z" fill="black"/>
<path d="M3.51351 122.973H0V126.486H3.51351V122.973Z" fill="black"/>
<path d="M24.5946 122.973H21.0811V126.486H24.5946V122.973Z" fill="black"/>
<path d="M35.1351 122.973H31.6216V126.486H35.1351V122.973Z" fill="black"/>
<path d="M38.6486 122.973H35.1351V126.486H38.6486V122.973Z" fill="black"/>
<path d="M45.6757 122.973H42.1622V126.486H45.6757V122.973Z" fill="black"/>
<path d="M52.7027 122.973H49.1892V126.486H52.7027V122.973Z" fill="black"/>
<path d="M56.2162 122.973H52.7027V126.486H56.2162L56.2162 122.973Z" fill="black"/>
<path d="M63.2433 122.973H59.7297L59.7297 126.486H63.2433V122.973Z" fill="black"/>
<path d="M66.7568 122.973H63.2433V126.486H66.7568V122.973Z" fill="black"/>
<path d="M77.2973 122.973H73.7838V126.486H77.2973V122.973Z" fill="black"/>
<path d="M80.8108 122.973H77.2973V126.486H80.8108V122.973Z" fill="black"/>
<path d="M94.8649 122.973H91.3514V126.486H94.8649V122.973Z" fill="black"/>
<path d="M98.3784 122.973H94.8649V126.486H98.3784V122.973Z" fill="black"/>
<path d="M101.892 122.973H98.3784V126.486H101.892V122.973Z" fill="black"/>
<path d="M105.405 122.973H101.892V126.486H105.405V122.973Z" fill="black"/>
<path d="M108.919 122.973H105.405V126.486H108.919V122.973Z" fill="black"/>
<path d="M112.432 122.973H108.919V126.486H112.432V122.973Z" fill="black"/>
<path d="M115.946 122.973H112.432V126.486H115.946V122.973Z" fill="black"/>
<path d="M122.973 122.973H119.459V126.486H122.973V122.973Z" fill="black"/>
<path d="M130 122.973H126.486V126.486H130V122.973Z" fill="black"/>
<path d="M3.51351 126.486H0V130H3.51351V126.486Z" fill="black"/>
<path d="M7.02703 126.486H3.51351V130H7.02703V126.486Z" fill="black"/>
<path d="M10.5405 126.486H7.02703V130H10.5405V126.486Z" fill="black"/>
<path d="M14.0541 126.486H10.5405V130H14.0541V126.486Z" fill="black"/>
<path d="M17.5676 126.486H14.0541V130H17.5676V126.486Z" fill="black"/>
<path d="M21.0811 126.486H17.5676V130H21.0811V126.486Z" fill="black"/>
<path d="M24.5946 126.486H21.0811V130H24.5946V126.486Z" fill="black"/>
<path d="M38.6486 126.486H35.1351V130H38.6486V126.486Z" fill="black"/>
<path d="M42.1622 126.486H38.6486V130H42.1622L42.1622 126.486Z" fill="black"/>
<path d="M45.6757 126.486H42.1622L42.1622 130H45.6757V126.486Z" fill="black"/>
<path d="M52.7027 126.486H49.1892V130H52.7027V126.486Z" fill="black"/>
<path d="M56.2162 126.486H52.7027V130H56.2162V126.486Z" fill="black"/>
<path d="M66.7568 126.486H63.2433L63.2432 130H66.7568V126.486Z" fill="black"/>
<path d="M70.2703 126.486H66.7568V130H70.2703V126.486Z" fill="black"/>
<path d="M80.8108 126.486H77.2973V130H80.8108V126.486Z" fill="black"/>
<path d="M87.8378 126.486H84.3243V130H87.8378V126.486Z" fill="black"/>
<path d="M94.8649 126.486H91.3514V130H94.8649V126.486Z" fill="black"/>
<path d="M101.892 126.486H98.3784V130H101.892V126.486Z" fill="black"/>
<path d="M108.919 126.486H105.405V130H108.919V126.486Z" fill="black"/>
<path d="M112.432 126.486H108.919V130H112.432V126.486Z" fill="black"/>
<path d="M119.459 126.486H115.946V130H119.459V126.486Z" fill="black"/>
<path d="M122.973 126.486H119.459V130H122.973V126.486Z" fill="black"/>
<path d="M126.486 126.486H122.973V130H126.486V126.486Z" fill="black"/>
<path d="M130 126.486H126.486V130H130V126.486Z" fill="black"/>
</svg>
