<svg width="26" height="22" viewBox="0 0 26 22" fill="none" xmlns="http://www.w3.org/2000/svg">
<rect x="25.5" y="1.125" width="20.125" height="25" rx="3.5" transform="rotate(90 25.5 1.125)" stroke="black"/>
<rect x="18.1875" y="3.5625" width="15.25" height="15.25" rx="1.5" transform="rotate(90 18.1875 3.5625)" stroke="black"/>
<circle cx="21.9375" cy="4.6875" r="1.125" stroke="black"/>
<circle cx="21.9375" cy="9.5625" r="1.125" stroke="black"/>
<circle cx="10.5625" cy="14.4375" r="0.8125" fill="black"/>
<path d="M21.9375 19.3125L21.9375 13.625" stroke="black"/>
<path d="M16.25 9.5625C15.0231 8.0927 12.9337 7.125 10.5625 7.125C8.19127 7.125 6.10189 8.0927 4.875 9.5625" stroke="black"/>
<path d="M14.625 11.1875C13.7487 10.2076 12.2562 9.5625 10.5625 9.5625C8.86876 9.5625 7.37635 10.2076 6.5 11.1875" stroke="black"/>
<path d="M13 12.8125C12.4742 12.3226 11.5787 12 10.5625 12C9.54626 12 8.65081 12.3226 8.125 12.8125" stroke="black"/>
</svg>
