<svg width="39" height="40" viewBox="0 0 39 40" fill="none" xmlns="http://www.w3.org/2000/svg">
<path fill-rule="evenodd" clip-rule="evenodd" d="M28.5495 12.9293H10.5013C9.14877 12.9293 7.98144 13.8676 7.70408 15.1776L3.8546 33.3595C3.48257 35.1166 4.83764 36.7677 6.65181 36.7677H32.399C34.2131 36.7677 35.5682 35.1166 35.1962 33.3595L31.3467 15.1776C31.0693 13.8676 29.902 12.9293 28.5495 12.9293ZM10.5013 9.69702C7.60304 9.69702 5.10162 11.7076 4.50728 14.5148L0.657799 32.6966C-0.139413 36.462 2.76431 40.0001 6.65181 40.0001H32.399C36.2865 40.0001 39.1902 36.462 38.393 32.6966L34.5435 14.5148C33.9492 11.7076 31.4477 9.69702 28.5495 9.69702H10.5013Z" fill="black"/>
<path fill-rule="evenodd" clip-rule="evenodd" d="M11.7681 7.67677C11.7681 3.43701 15.2411 0 19.5253 0C23.8096 0 27.2826 3.43701 27.2826 7.67677V15.7576C27.2826 16.6502 26.5515 17.3737 25.6495 17.3737C24.7476 17.3737 24.0164 16.6502 24.0164 15.7576V7.67677C24.0164 5.22217 22.0057 3.23233 19.5253 3.23233C17.045 3.23233 15.0343 5.22217 15.0343 7.67677V15.7576C15.0343 16.6502 14.3031 17.3737 13.4012 17.3737C12.4992 17.3737 11.7681 16.6502 11.7681 15.7576V7.67677Z" fill="black"/>
</svg>
