<svg width="38" height="40" viewBox="0 0 38 40" fill="none" xmlns="http://www.w3.org/2000/svg">
<path fill-rule="evenodd" clip-rule="evenodd" d="M12.4208 32V8C12.4208 5.55832 10.4415 3.57895 7.99985 3.57895C5.55822 3.57895 3.57888 5.55832 3.57888 8V32C3.57888 34.4417 5.55822 36.4211 7.99985 36.4211C10.4415 36.4211 12.4208 34.4417 12.4208 32ZM7.99985 0C3.58165 0 0 3.58172 0 8V32C0 36.4183 3.58165 40 7.99985 40C12.418 40 15.9997 36.4183 15.9997 32V8C15.9997 3.58172 12.418 0 7.99985 0Z" fill="black"/>
<path fill-rule="evenodd" clip-rule="evenodd" d="M34.4213 32V18C34.4213 15.5583 32.442 13.5789 30.0003 13.5789C27.5587 13.5789 25.5794 15.5583 25.5794 18V32C25.5794 34.4417 27.5587 36.4211 30.0003 36.4211C32.442 36.4211 34.4213 34.4417 34.4213 32ZM30.0003 10C25.5821 10 22.0005 13.5817 22.0005 18V32C22.0005 36.4183 25.5821 40 30.0003 40C34.4185 40 38.0002 36.4183 38.0002 32V18C38.0002 13.5817 34.4185 10 30.0003 10Z" fill="black"/>
</svg>
