<svg width="23" height="23" viewBox="0 0 23 23" fill="none" xmlns="http://www.w3.org/2000/svg">
<path d="M23 11.5C23 5.14873 17.8513 -7.80304e-07 11.5 -5.02681e-07C5.14873 -2.25058e-07 -7.80304e-07 5.14873 -5.02681e-07 11.5C-2.25058e-07 17.8513 5.14873 23 11.5 23C17.8513 23 23 17.8513 23 11.5Z" fill="#7F7F7F"/>
<path fill-rule="evenodd" clip-rule="evenodd" d="M2.65234 11.7656C6.23844 11.8102 8.25403 12.055 9.59903 13.4C10.9441 14.745 11.1889 16.7606 11.2334 20.3467L11.7636 20.3467C11.8082 16.7606 12.053 14.745 13.398 13.4C14.743 12.055 16.7586 11.8102 20.3446 11.7656L20.3446 11.2354C16.7586 11.1909 14.743 10.9461 13.398 9.60107C12.053 8.25605 11.8082 6.24049 11.7636 2.65437L11.2334 2.65437C11.1888 6.24049 10.9441 8.25605 9.59903 9.60107C8.25403 10.9461 6.23844 11.1909 2.65234 11.2354L2.65234 11.7656Z" fill="#2C2C2C"/>
</svg>
