<svg width="34" height="34" viewBox="0 0 34 34" fill="none" xmlns="http://www.w3.org/2000/svg">
<rect width="34" height="34" rx="17" fill="#7F7F7F"/>
<path fill-rule="evenodd" clip-rule="evenodd" d="M6 17.3297C10.4592 17.3851 12.9656 17.6894 14.6381 19.3619C16.3106 21.0344 16.615 23.5407 16.6703 28L17.3297 28C17.3851 23.5407 17.6895 21.0344 19.3619 19.3619C21.0344 17.6894 23.5408 17.3851 28 17.3297L28 16.6703C23.5408 16.6149 21.0344 16.3106 19.3619 14.6381C17.6895 12.9656 17.3851 10.4593 17.3297 6L16.6703 6C16.6149 10.4593 16.3106 12.9656 14.6381 14.6381C12.9656 16.3106 10.4592 16.6149 6 16.6703L6 17.3297Z" fill="#2C2C2C"/>
</svg>
