<svg width="23" height="21" viewBox="0 0 23 21" fill="none" xmlns="http://www.w3.org/2000/svg">
<path d="M10.5039 18.7483L10.5024 18.747C7.521 16.0565 5.12777 13.8945 3.46785 11.8749C1.81927 9.86915 1 8.12714 1 6.29428C1 3.32635 3.33069 1 6.325 1C8.02503 1 9.67093 1.79242 10.7402 3.04199L11.5 3.92989L12.2598 3.04199C13.3291 1.79242 14.975 1 16.675 1C19.6693 1 22 3.32635 22 6.29428C22 8.12716 21.1807 9.86921 19.5319 11.8766C17.872 13.8976 15.479 16.0622 12.4979 18.7581C12.4975 18.7584 12.4971 18.7588 12.4968 18.7591L11.5025 19.653L10.5039 18.7483Z" stroke="#545454" stroke-width="2"/>
</svg>
