<svg width="44" height="40" viewBox="0 0 44 40" fill="none" xmlns="http://www.w3.org/2000/svg">
<path fill-rule="evenodd" clip-rule="evenodd" d="M21.1843 34.4547L21.1894 34.4594L22.009 35.1987L22.8129 34.4791C22.8141 34.478 22.8153 34.4769 22.8166 34.4758C28.5531 29.3106 33.0225 25.2795 36.1014 21.5471C39.1417 17.8617 40.4381 14.917 40.4381 11.9891C40.4381 7.29881 36.7559 3.57895 31.9 3.57895C29.132 3.57895 26.4336 4.87302 24.6958 6.895L22 10.0317L19.3042 6.895C17.5664 4.87302 14.868 3.57895 12.1 3.57895C7.24407 3.57895 3.56191 7.29881 3.56191 11.9891C3.56191 14.9169 4.85834 17.8615 7.89781 21.5435C10.9766 25.2731 15.4468 29.2997 21.1843 34.4547ZM25.19 37.1444L22 40L18.81 37.1226L18.7821 37.0976C7.46773 26.9318 0 20.2221 0 11.9891C0 5.2752 5.324 0 12.1 0C14.693 0 17.2154 0.810184 19.3184 2.20019C20.3199 2.86219 21.2264 3.65571 22 4.55586C22.7736 3.65571 23.6801 2.86219 24.6816 2.20019C26.7846 0.810184 29.307 0 31.9 0C38.676 0 44 5.2752 44 11.9891C44 20.2078 36.5582 26.9084 25.2769 37.0662L25.19 37.1444Z" fill="black"/>
</svg>
