<svg width="26" height="27" viewBox="0 0 26 27" fill="none" xmlns="http://www.w3.org/2000/svg">
<path d="M0 4.5C0 3.94772 0.447715 3.5 1 3.5H25C25.5523 3.5 26 3.94772 26 4.5C26 5.05228 25.5523 5.5 25 5.5H1C0.447716 5.5 0 5.05228 0 4.5Z" fill="black"/>
<path d="M0 22.5C0 21.9477 0.447715 21.5 1 21.5H25C25.5523 21.5 26 21.9477 26 22.5C26 23.0523 25.5523 23.5 25 23.5H1C0.447716 23.5 0 23.0523 0 22.5Z" fill="black"/>
<path d="M0 13.5C0 12.9477 0.447715 12.5 1 12.5H25C25.5523 12.5 26 12.9477 26 13.5C26 14.0523 25.5523 14.5 25 14.5H1C0.447716 14.5 0 14.0523 0 13.5Z" fill="black"/>
<circle cx="7.5" cy="4.5" r="3.5" fill="white" stroke="black" stroke-width="2"/>
<circle cx="9.5" cy="22.5" r="3.5" fill="white" stroke="black" stroke-width="2"/>
<circle cx="17.5" cy="13.5" r="3.5" fill="white" stroke="black" stroke-width="2"/>
</svg>
