<svg width="21" height="24" viewBox="0 0 21 24" fill="none" xmlns="http://www.w3.org/2000/svg">
<path d="M10.7248 5.60819C10.7248 5.60819 1.63248 0.443633 1.09711 0.141986C0.561737 -0.15966 0.0263672 0.023156 0.0263672 0.653872V22.9117C0.0263672 23.3871 0.410049 23.5882 0.874037 23.3322C1.33802 23.0671 10.7248 17.738 10.7248 17.738C10.7248 17.738 12.0008 17.0159 12.6343 16.6503C13.6605 16.0653 15.7127 14.9044 15.7127 14.9044C15.7127 14.9044 19.9511 12.5004 20.5132 12.1804C21.0753 11.8605 21.0218 11.4217 20.5489 11.1749C20.076 10.9281 15.7216 8.4327 15.7216 8.4327L10.7248 5.60819Z" fill="url(#paint0_linear_1546_29403)"/>
<path d="M12.4027 11.6401L0.446142 0.03125C0.169534 0.0952357 0 0.314615 0 0.671107V22.8833C0 23.1849 0.115997 23.3677 0.267685 23.4317L12.4027 11.6401Z" fill="url(#paint1_linear_1546_29403)"/>
<mask id="mask0_1546_29403" style="mask-type:alpha" maskUnits="userSpaceOnUse" x="0" y="0" width="13" height="24">
<path d="M12.4027 11.6401L0.446142 0.03125C0.169534 0.0952357 0 0.314615 0 0.671107V22.8833C0 23.1849 0.115997 23.3677 0.267685 23.4317L12.4027 11.6401Z" fill="white"/>
</mask>
<g mask="url(#mask0_1546_29403)">
</g>
<mask id="mask1_1546_29403" style="mask-type:alpha" maskUnits="userSpaceOnUse" x="0" y="11" width="16" height="13">
<path d="M0.758334 23.3693L7.67353 19.4753C9.37779 18.5064 10.7251 17.7385 10.7251 17.7385L15.7487 14.9689L12.4026 11.6416L0.267578 23.4332C0.401421 23.479 0.642337 23.4515 0.829717 23.3601" fill="white"/>
</mask>
<g mask="url(#mask1_1546_29403)">
<path d="M10.7064 5.60901C10.6886 5.65471 1.59621 0.481013 1.06976 0.215929C0.534394 -0.131421 -0.000976562 0.0605357 -0.000976562 0.67297V22.9765C-0.000976562 23.4701 0.382705 23.6712 0.802079 23.4336C1.31068 23.1411 10.6886 17.812 10.7064 17.7663L15.7032 14.9326C15.6764 14.9692 19.9059 12.5652 20.4323 12.2818C21.0391 11.9253 20.9766 11.4865 20.5215 11.2763C20.0308 10.9838 15.6764 8.48836 15.7032 8.44266L10.7064 5.60901Z" fill="url(#paint2_linear_1546_29403)"/>
</g>
<path d="M1.07604 0.131663C0.844044 0.0128322 0.620973 -0.023731 0.433594 0.021973L12.3991 11.6491L15.7095 8.44066L10.7216 5.60701C10.7216 5.60701 6.01929 2.93789 3.18183 1.32911L1.07604 0.131663Z" fill="url(#paint3_linear_1546_29403)"/>
<mask id="mask2_1546_29403" style="mask-type:alpha" maskUnits="userSpaceOnUse" x="0" y="0" width="16" height="12">
<path d="M1.07604 0.131663C0.844044 0.0128322 0.620973 -0.023731 0.433594 0.021973L12.3991 11.6491L15.7095 8.44066L10.7216 5.60701C10.7216 5.60701 6.01929 2.93789 3.18183 1.32911L1.07604 0.131663Z" fill="white"/>
</mask>
<g mask="url(#mask2_1546_29403)">
</g>
<defs>
<linearGradient id="paint0_linear_1546_29403" x1="4.95851" y1="7.40074" x2="12.7877" y2="18.616" gradientUnits="userSpaceOnUse">
<stop stop-color="#FF177B"/>
<stop offset="1" stop-color="#FFEC73"/>
</linearGradient>
<linearGradient id="paint1_linear_1546_29403" x1="8.18411" y1="-8.54868" x2="-5.97203" y2="20.7961" gradientUnits="userSpaceOnUse">
<stop stop-color="#064AA2"/>
<stop offset="1" stop-color="#63FFD4"/>
</linearGradient>
<linearGradient id="paint2_linear_1546_29403" x1="12.3047" y1="4.7453" x2="-4.65647" y2="14.6499" gradientUnits="userSpaceOnUse">
<stop stop-color="#FF4521"/>
<stop offset="1" stop-color="#8A33DB"/>
</linearGradient>
<linearGradient id="paint3_linear_1546_29403" x1="2.69611" y1="-3.70366" x2="8.94983" y2="12.164" gradientUnits="userSpaceOnUse">
<stop stop-color="#00A3B5"/>
<stop offset="1" stop-color="#D6FFA1"/>
</linearGradient>
</defs>
</svg>
