<svg width="27" height="26" viewBox="0 0 27 26" fill="none" xmlns="http://www.w3.org/2000/svg">
<path d="M23.8774 12.2231C20.5805 8.22702 17.0357 6.26211 13.3409 6.35678C7.37994 6.52342 3.27664 12.0137 3.1048 12.2471C3.09686 12.2581 3.09139 12.2701 3.08455 12.2816C3.0788 12.2904 3.07361 12.2994 3.06841 12.309C3.05609 12.3309 3.0457 12.3528 3.03694 12.3755C3.03284 12.3864 3.02928 12.3974 3.02572 12.4083C3.01888 12.4299 3.01313 12.4515 3.00903 12.4734C3.00629 12.4877 3.00465 12.5019 3.00328 12.5164C3.00137 12.535 3 12.5536 3 12.5725C3 12.5911 3.00137 12.6097 3.00328 12.6283C3.00493 12.6428 3.00657 12.6568 3.00903 12.6713C3.01313 12.6931 3.01888 12.7148 3.02572 12.7364C3.02928 12.7473 3.03284 12.7583 3.03694 12.7692C3.0457 12.7919 3.05637 12.8138 3.06841 12.8357C3.07361 12.845 3.07853 12.8538 3.08455 12.8631C3.09139 12.8743 3.09686 12.8866 3.1048 12.8975C3.27664 13.1312 7.37994 18.6213 13.3409 18.7879C13.4331 18.7904 13.5248 18.7917 13.6164 18.7917C17.2116 18.7917 20.6623 16.8181 23.8774 12.9216C23.962 12.8193 24.0003 12.6953 24 12.5725C24.0003 12.4493 23.962 12.3254 23.8774 12.2231ZM13.3781 17.6942C8.74342 17.5681 5.20187 13.722 4.245 12.5725C5.20187 11.423 8.74314 7.57661 13.3781 7.45046C16.6129 7.36591 19.755 9.08921 22.7364 12.5725C19.7552 16.056 16.6162 17.7878 13.3781 17.6942Z" fill="#2D2A28"/>
<path d="M13.7737 8.96967C11.7869 8.96967 10.1709 10.5857 10.1709 12.5722C10.1709 14.559 11.7869 16.1751 13.7737 16.1751C15.7605 16.1751 17.3766 14.559 17.3766 12.5722C17.3766 10.5857 15.7605 8.96967 13.7737 8.96967ZM13.7737 15.0806C12.3906 15.0806 11.2654 13.9554 11.2654 12.5722C11.2654 11.1893 12.3906 10.0642 13.7737 10.0642C15.1569 10.0642 16.2821 11.1893 16.2821 12.5722C16.2821 13.9551 15.1569 15.0806 13.7737 15.0806Z" fill="#2D2A28"/>
<path d="M3.64648 23.4142L4.35359 24.1213L5.0607 23.4142L24.0607 4.41421L24.7678 3.70711L24.0607 3L23.3536 2.29289L22.6465 1.58579L21.9394 2.29289L2.93938 21.2929L2.23227 22L2.93938 22.7071L3.64648 23.4142Z" fill="#2D2A28" stroke="white" stroke-width="2"/>
</svg>
