<svg width="22" height="22" viewBox="0 0 22 22" fill="none" xmlns="http://www.w3.org/2000/svg">
<path d="M7 14C7 13.4477 7.44772 13 8 13H14C14.5523 13 15 13.4477 15 14V20C15 20.5523 14.5523 21 14 21H8C7.44772 21 7 20.5523 7 20V14Z" stroke="#545454" stroke-width="2"/>
<path d="M1 8.4037C1 8.06935 1.1671 7.75712 1.4453 7.57165L10.4453 1.57165C10.7812 1.34772 11.2188 1.34772 11.5547 1.57165L20.5547 7.57165C20.8329 7.75712 21 8.06935 21 8.4037V20C21 20.5523 20.5523 21 20 21H13.2H8.8H2C1.44772 21 1 20.5523 1 20V8.4037Z" stroke="#545454" stroke-width="2"/>
</svg>
