<svg width="41" height="40" viewBox="0 0 41 40" fill="none" xmlns="http://www.w3.org/2000/svg">
<path fill-rule="evenodd" clip-rule="evenodd" d="M25.0367 25.0801H15.276C14.9271 25.0801 14.6444 25.369 14.6444 25.7254V35.698C14.6444 36.0544 14.9271 36.3433 15.276 36.3433H25.0367C25.3855 36.3433 25.6683 36.0544 25.6683 35.698V25.7254C25.6683 25.369 25.3855 25.0801 25.0367 25.0801ZM15.276 21.4235C12.9505 21.4235 11.0654 23.3495 11.0654 25.7254V35.698C11.0654 38.0739 12.9505 40 15.276 40H25.0367C27.3621 40 29.2472 38.0739 29.2472 35.698V25.7254C29.2472 23.3495 27.3621 21.4235 25.0367 21.4235H15.276Z" fill="black"/>
<path fill-rule="evenodd" clip-rule="evenodd" d="M36.5778 35.698V15.0567C36.5778 14.841 36.4723 14.6395 36.2965 14.5198L20.5071 3.76502C20.2949 3.62051 20.0185 3.62051 19.8064 3.76502L4.01693 14.5198C3.84123 14.6395 3.73569 14.841 3.73569 15.0568V35.698C3.73569 36.0544 4.01845 36.3433 4.36726 36.3433H35.9462C36.295 36.3433 36.5778 36.0544 36.5778 35.698ZM2.03168 11.4773C0.860322 12.2752 0.156738 13.6184 0.156738 15.0568V35.698C0.156738 38.0739 2.04185 40 4.36726 40H35.9462C38.2716 40 40.1567 38.0739 40.1567 35.698V15.0567C40.1567 13.6184 39.4532 12.2752 38.2818 11.4773L22.4923 0.722507C21.078 -0.240836 19.2355 -0.240836 17.8212 0.722508L2.03168 11.4773Z" fill="black"/>
</svg>
