<svg width="40" height="40" viewBox="0 0 40 40" fill="none" xmlns="http://www.w3.org/2000/svg">
<path fill-rule="evenodd" clip-rule="evenodd" d="M13 3.5H4C3.72386 3.5 3.5 3.72386 3.5 4V13C3.5 13.2761 3.72386 13.5 4 13.5H13C13.2761 13.5 13.5 13.2761 13.5 13V4C13.5 3.72386 13.2761 3.5 13 3.5ZM4 0C1.79086 0 0 1.79086 0 4V13C0 15.2091 1.79086 17 4 17H13C15.2091 17 17 15.2091 17 13V4C17 1.79086 15.2091 0 13 0H4Z" fill="black"/>
<path fill-rule="evenodd" clip-rule="evenodd" d="M36 3.5H27C26.7239 3.5 26.5 3.72386 26.5 4V13C26.5 13.2761 26.7239 13.5 27 13.5H36C36.2761 13.5 36.5 13.2761 36.5 13V4C36.5 3.72386 36.2761 3.5 36 3.5ZM27 0C24.7909 0 23 1.79086 23 4V13C23 15.2091 24.7909 17 27 17H36C38.2091 17 40 15.2091 40 13V4C40 1.79086 38.2091 0 36 0H27Z" fill="black"/>
<path fill-rule="evenodd" clip-rule="evenodd" d="M13 26.5H4C3.72386 26.5 3.5 26.7239 3.5 27V36C3.5 36.2761 3.72386 36.5 4 36.5H13C13.2761 36.5 13.5 36.2761 13.5 36V27C13.5 26.7239 13.2761 26.5 13 26.5ZM4 23C1.79086 23 0 24.7909 0 27V36C0 38.2091 1.79086 40 4 40H13C15.2091 40 17 38.2091 17 36V27C17 24.7909 15.2091 23 13 23H4Z" fill="black"/>
<path fill-rule="evenodd" clip-rule="evenodd" d="M36 26.5H27C26.7239 26.5 26.5 26.7239 26.5 27V36C26.5 36.2761 26.7239 36.5 27 36.5H36C36.2761 36.5 36.5 36.2761 36.5 36V27C36.5 26.7239 36.2761 26.5 36 26.5ZM27 23C24.7909 23 23 24.7909 23 27V36C23 38.2091 24.7909 40 27 40H36C38.2091 40 40 38.2091 40 36V27C40 24.7909 38.2091 23 36 23H27Z" fill="black"/>
</svg>
