<svg width="22" height="22" viewBox="0 0 22 22" fill="none" xmlns="http://www.w3.org/2000/svg">
<path d="M19.2495 0H2.74993C1.23119 0 0 1.23122 0 2.75V19.25C0 20.7688 1.23119 22 2.74993 22H19.2495C20.7683 22 21.9995 20.7688 21.9995 19.25V2.75C21.9995 1.23122 20.7683 0 19.2495 0Z" fill="#171717"/>
<path d="M11.4847 11.2623C13.8414 11.2616 15.7503 9.38187 15.7496 7.06473C15.7488 4.74685 13.8376 2.86937 11.4817 2.87012C9.12573 2.87087 7.21605 4.75059 7.21681 7.06772C7.21985 9.38411 9.12953 11.2608 11.4847 11.2623ZM11.4847 5.33006C12.4608 5.33006 13.2522 6.10842 13.2522 7.06847C13.2522 8.02852 12.4608 8.80614 11.4847 8.80614C10.5086 8.80614 9.71718 8.02778 9.71718 7.06772C9.71871 6.10842 10.5093 5.33081 11.4847 5.33006ZM13.2096 14.6861C14.0877 14.4902 14.9255 14.1485 15.688 13.6767C16.2688 13.3081 16.436 12.5469 16.0612 11.9757C15.6925 11.4134 14.9338 11.2436 14.3545 11.5943C12.5977 12.6748 10.3672 12.6748 8.6103 11.5943C8.02721 11.2347 7.2571 11.4066 6.88992 11.9794C6.52121 12.5529 6.69454 13.3125 7.27839 13.6752C7.27915 13.6752 7.27991 13.6759 7.27991 13.6759C8.04165 14.147 8.87942 14.4887 9.75672 14.6853L7.37114 17.0316C6.896 17.5251 6.91804 18.3042 7.42055 18.7715C7.90329 19.2201 8.65743 19.2201 9.14018 18.7715L11.4832 16.4656L13.8277 18.7715C14.3158 19.2508 15.1056 19.2508 15.5937 18.7715C16.081 18.2915 16.081 17.5146 15.5937 17.0346L13.2096 14.6861Z" fill="white"/>
</svg>
