<svg width="26" height="26" viewBox="0 0 26 26" fill="none" xmlns="http://www.w3.org/2000/svg">
<rect width="26" height="26" rx="6" fill="#D7D7D7"/>
<path d="M13.0047 12.8041C15.1401 12.8034 16.8697 11.1002 16.869 9.00077C16.8683 6.90063 15.1366 5.19952 13.002 5.2002C10.8673 5.20087 9.13696 6.90402 9.13765 9.00348C9.14041 11.1023 10.8707 12.8027 13.0047 12.8041ZM13.0047 7.42905C13.8892 7.42905 14.6062 8.1343 14.6062 9.00416C14.6062 9.87402 13.8892 10.5786 13.0047 10.5786C12.1203 10.5786 11.4032 9.87335 11.4032 9.00348C11.4046 8.1343 12.121 7.42973 13.0047 7.42905ZM14.5677 15.9062C15.3633 15.7287 16.1223 15.4191 16.8132 14.9916C17.3395 14.6576 17.491 13.9679 17.1514 13.4504C16.8174 12.9409 16.1299 12.7871 15.605 13.1049C14.0132 14.0838 11.9921 14.0838 10.4003 13.1049C9.87194 12.779 9.17416 12.9348 8.84146 13.4537C8.50738 13.9734 8.66443 14.6617 9.19345 14.9902L9.19483 14.9909C9.88503 15.4177 10.6441 15.7273 11.439 15.9055L9.27748 18.0314C8.84697 18.4785 8.86694 19.1844 9.32226 19.6078C9.75966 20.0143 10.443 20.0143 10.8804 19.6078L13.0033 17.5185L15.1277 19.6078C15.5699 20.0421 16.2856 20.0421 16.7278 19.6078C17.1694 19.1729 17.1694 18.469 16.7278 18.0341L14.5677 15.9062Z" fill="white"/>
</svg>
