<svg width="23" height="23" viewBox="0 0 23 23" fill="none" xmlns="http://www.w3.org/2000/svg">
<path d="M20.125 0H2.875C1.28718 0 0 1.28718 0 2.875V20.125C0 21.7128 1.28718 23 2.875 23H20.125C21.7128 23 23 21.7128 23 20.125V2.875C23 1.28718 21.7128 0 20.125 0Z" fill="#7F7F7F"/>
<path d="M12.0062 11.7737C14.4701 11.7729 16.4658 9.80774 16.465 7.38528C16.4642 4.96204 14.4661 2.99922 12.003 3C9.53993 3.00078 7.5434 4.96595 7.5442 7.38841C7.54738 9.81008 9.54391 11.7721 12.0062 11.7737ZM12.0062 5.57176C13.0267 5.57176 13.8541 6.3855 13.8541 7.38919C13.8541 8.39288 13.0267 9.20584 12.0062 9.20584C10.9857 9.20584 10.1583 8.3921 10.1583 7.38841C10.1599 6.3855 10.9865 5.57254 12.0062 5.57176ZM13.8096 15.353C14.7276 15.1482 15.6034 14.791 16.4006 14.2978C17.0079 13.9124 17.1827 13.1166 16.7909 12.5194C16.4054 11.9316 15.6122 11.7541 15.0066 12.1208C13.1698 13.2503 10.8378 13.2503 9.00106 12.1208C8.39145 11.7448 7.58632 11.9246 7.20243 12.5233C6.81696 13.1229 6.99817 13.9171 7.60858 14.2962C7.60937 14.2962 7.61016 14.297 7.61016 14.297C8.40655 14.7894 9.28242 15.1467 10.1996 15.3523L7.70554 17.8052C7.20879 18.3211 7.23184 19.1356 7.7572 19.6242C8.2619 20.0932 9.05034 20.0932 9.55504 19.6242L12.0046 17.2135L14.4558 19.6242C14.966 20.1253 15.7918 20.1253 16.3021 19.6242C16.8115 19.1224 16.8115 18.3102 16.3021 17.8083L13.8096 15.353Z" fill="#2C2C2C"/>
</svg>
