<svg width="34" height="34" viewBox="0 0 34 34" fill="none" xmlns="http://www.w3.org/2000/svg">
<rect width="34" height="34" rx="17" fill="#7F7F7F"/>
<path d="M17.0077 16.7433C19.8001 16.7424 22.0619 14.5152 22.061 11.7698C22.0601 9.02345 19.7956 6.79892 17.0041 6.7998C14.2126 6.80069 11.9498 9.02788 11.9507 11.7733C11.9543 14.5179 14.2171 16.7415 17.0077 16.7433ZM17.0077 9.71447C18.1643 9.71447 19.102 10.6367 19.102 11.7742C19.102 12.9117 18.1643 13.8331 17.0077 13.8331C15.8511 13.8331 14.9134 12.9108 14.9134 11.7733C14.9152 10.6367 15.852 9.71535 17.0077 9.71447ZM19.0515 20.7999C20.0919 20.5678 21.0846 20.163 21.988 19.6039C22.6762 19.1672 22.8744 18.2653 22.4303 17.5885C21.9934 16.9223 21.0945 16.7212 20.4081 17.1367C18.3264 18.4168 15.6835 18.4168 13.6019 17.1367C12.911 16.7105 11.9985 16.9143 11.5634 17.5929C11.1265 18.2724 11.3319 19.1725 12.0237 19.6022C12.0246 19.6022 12.0255 19.6031 12.0255 19.6031C12.9281 20.1612 13.9207 20.566 14.9602 20.799L12.1336 23.579C11.5706 24.1637 11.5967 25.0869 12.1921 25.6406C12.7641 26.1721 13.6577 26.1721 14.2297 25.6406L17.0059 22.9084L19.7838 25.6406C20.3621 26.2084 21.298 26.2084 21.8763 25.6406C22.4537 25.0718 22.4537 24.1513 21.8763 23.5826L19.0515 20.7999Z" fill="#2C2C2C"/>
</svg>
