<svg width="13" height="14" viewBox="0 0 13 14" fill="none" xmlns="http://www.w3.org/2000/svg">
<path fill-rule="evenodd" clip-rule="evenodd" d="M4.75017 11.4556L10.6044 5.60139C11.278 4.92781 11.278 3.83572 10.6044 3.16213C9.93081 2.48855 8.83872 2.48855 8.16513 3.16213L2.31091 9.01636C1.63732 9.68994 1.63732 10.782 2.31091 11.4556C2.98449 12.1292 4.07659 12.1292 4.75017 11.4556ZM11.0922 2.67428C10.1492 1.73126 8.6203 1.73126 7.67728 2.67428L1.82306 8.52851C0.880039 9.47152 0.880039 11.0005 1.82306 11.9435C2.76607 12.8865 4.295 12.8865 5.23802 11.9435L11.0922 6.08925C12.0353 5.14623 12.0353 3.6173 11.0922 2.67428Z" fill="#D7D7D7"/>
<path d="M7.67728 2.67428C8.6203 1.73126 10.1492 1.73126 11.0922 2.67428C12.0353 3.6173 12.0353 5.14623 11.0922 6.08925L10.3605 6.82102L6.9455 3.40606L7.67728 2.67428Z" fill="#D7D7D7"/>
</svg>
