<svg width="167" height="182" viewBox="0 0 167 182" fill="none" xmlns="http://www.w3.org/2000/svg">
<path d="M46.1471 89.5231C33.02 89.5231 22.1361 85.235 13.4954 76.6589C4.68857 67.9179 0.285156 57.3627 0.285156 44.9933C0.285156 32.7889 4.68857 22.3161 13.4954 13.5751C22.1361 4.99898 33.02 0.710938 46.1471 0.710938C59.1081 0.710938 69.909 4.99898 78.5496 13.5751C87.1903 22.1512 91.5106 32.6239 91.5106 44.9933C91.5106 57.3627 87.1072 67.9179 78.3004 76.6589C69.6597 85.235 58.942 89.5231 46.1471 89.5231ZM43.4054 160.028L26.2071 150.38L140.862 26.6866L158.31 36.5821L43.4054 160.028ZM45.8979 58.1048C51.2152 58.4347 54.954 56.3731 57.1141 51.9202C59.4405 47.3023 59.4405 42.7668 57.1141 38.3138C54.954 33.8609 51.2152 31.7993 45.8979 32.1292C42.2422 32.1292 39.1681 33.3661 36.6756 35.84C34.3493 38.3138 33.1861 41.3649 33.1861 44.9933C33.1861 48.7866 34.3493 51.9201 36.6756 54.394C39.1681 56.8679 42.2422 58.1048 45.8979 58.1048ZM142.607 181.056C129.314 181.056 118.347 176.768 109.706 168.192C101.065 159.616 96.7449 149.143 96.7449 136.774C96.7449 124.24 101.065 113.685 109.706 105.108C118.347 96.5324 129.314 92.2443 142.607 92.2443C155.402 92.2443 166.202 96.6148 175.009 105.356C183.65 113.932 187.97 124.405 187.97 136.774C187.97 148.979 183.567 159.451 174.76 168.192C166.119 176.768 155.402 181.056 142.607 181.056ZM155.069 136.774C155.069 132.981 153.823 129.847 151.331 127.373C149.004 124.899 146.013 123.663 142.358 123.663C138.702 123.663 135.628 124.899 133.135 127.373C130.809 129.847 129.646 132.981 129.646 136.774C129.646 140.402 130.809 143.454 133.135 145.927C135.628 148.401 138.702 149.638 142.358 149.638C145.847 149.638 148.838 148.401 151.331 145.927C153.823 143.289 155.069 140.238 155.069 136.774Z" fill="#F7F8F9"/>
</svg>
