<svg width="41" height="40" viewBox="0 0 41 40" fill="none" xmlns="http://www.w3.org/2000/svg">
<path fill-rule="evenodd" clip-rule="evenodd" d="M20.1047 19.5789C24.6511 19.5789 28.3367 15.9972 28.3367 11.5789C28.3367 7.16067 24.6511 3.57895 20.1047 3.57895C15.5583 3.57895 11.8727 7.16067 11.8727 11.5789C11.8727 15.9972 15.5583 19.5789 20.1047 19.5789ZM20.1047 23.1579C26.685 23.1579 32.0195 17.9738 32.0195 11.5789C32.0195 5.18407 26.685 0 20.1047 0C13.5244 0 8.18994 5.18407 8.18994 11.5789C8.18994 17.9738 13.5244 23.1579 20.1047 23.1579Z" fill="black"/>
<path fill-rule="evenodd" clip-rule="evenodd" d="M20.104 23.5789C13.5916 23.5789 7.93425 26.3964 4.52266 30.5575C3.8913 31.3276 3.77371 31.9218 3.78785 32.3336C3.80328 32.7832 3.9913 33.3494 4.50567 33.9744C5.58322 35.2839 7.77911 36.421 10.3556 36.421L29.8524 36.4211C32.4289 36.4211 34.6248 35.2839 35.7023 33.9744C36.2167 33.3494 36.4047 32.7832 36.4202 32.3336C36.4343 31.9218 36.3167 31.3276 35.6853 30.5575C32.2738 26.3964 26.6164 23.5789 20.104 23.5789ZM1.64237 28.3273C5.77289 23.2893 12.5031 20 20.104 20C27.7049 20 34.4351 23.2893 38.5656 28.3273C43.0389 33.7834 37.031 40 29.8524 40L10.3556 40C3.17701 40 -2.83093 33.7834 1.64237 28.3273Z" fill="black"/>
</svg>
