<svg width="20" height="19" viewBox="0 0 20 19" fill="none" xmlns="http://www.w3.org/2000/svg">
<path d="M1 4H19" stroke="#202020" stroke-linecap="round"/>
<path fill-rule="evenodd" clip-rule="evenodd" d="M3 5.5C3.27614 5.5 3.5 5.72386 3.5 6V15C3.5 16.3807 4.61929 17.5 6 17.5H14C15.3807 17.5 16.5 16.3807 16.5 15V6C16.5 5.72386 16.7239 5.5 17 5.5C17.2761 5.5 17.5 5.72386 17.5 6V15C17.5 16.933 15.933 18.5 14 18.5H6C4.067 18.5 2.5 16.933 2.5 15V6C2.5 5.72386 2.72386 5.5 3 5.5Z" fill="#202020"/>
<path d="M7 8V15M10 8V15M13 8V15" stroke="#202020" stroke-linecap="round"/>
<path d="M6 4V3C6 1.89543 6.89543 1 8 1H12C13.1046 1 14 1.89543 14 3V4" stroke="#202020" stroke-linecap="round"/>
</svg>
