<svg width="23" height="23" viewBox="0 0 23 23" fill="none" xmlns="http://www.w3.org/2000/svg">
<path d="M20.125 0H2.875C1.28718 0 0 1.28718 0 2.875V20.125C0 21.7128 1.28718 23 2.875 23H20.125C21.7128 23 23 21.7128 23 20.125V2.875C23 1.28718 21.7128 0 20.125 0Z" fill="#7F7F7F"/>
<path d="M14.8799 12.5513C15.5881 11.9025 16.0426 11.0148 16.0426 9.9006V9.41594C16.0426 7.45931 14.6462 6.02171 12.9243 6.02171L8 6L8.00295 16.9792L10.3288 17V13.2735H12.7195L14.2779 17H17L14.8799 12.5513ZM13.6659 9.76746C13.6659 10.5466 13.1096 10.9888 12.4236 10.9888H10.3289V8.3522H12.4236C13.1096 8.3522 13.6659 8.89952 13.6659 9.67887V9.76746Z" fill="#2C2C2C"/>
</svg>
