<svg width="21" height="13" viewBox="0 0 21 13" fill="none" xmlns="http://www.w3.org/2000/svg">
<path d="M20.8774 5.86954C17.5805 1.8735 14.0357 -0.0914104 10.3409 0.00326434C4.37994 0.169903 0.276636 5.66021 0.104799 5.89362C0.0968637 5.90456 0.0913912 5.9166 0.0845505 5.9281C0.0788044 5.93685 0.0736055 5.94588 0.0684066 5.95546C0.0560934 5.97735 0.0456956 5.99924 0.0369396 6.02195C0.0328352 6.03289 0.029278 6.04384 0.0257209 6.05478C0.0188802 6.0764 0.0131341 6.09802 0.00902967 6.11991C0.0062934 6.13414 0.00465165 6.14836 0.00328352 6.16287C0.00136813 6.18147 0 6.20008 0 6.21896C0 6.23757 0.00136813 6.25617 0.00328352 6.27478C0.00492527 6.28928 0.00656703 6.30324 0.00902967 6.31774C0.0131341 6.33963 0.0188802 6.36125 0.0257209 6.38286C0.029278 6.39381 0.0328352 6.40475 0.0369396 6.4157C0.0456956 6.43841 0.056367 6.4603 0.0684066 6.48219C0.0736055 6.49149 0.0785307 6.50025 0.0845505 6.50955C0.0913912 6.52077 0.0968637 6.53308 0.104799 6.54403C0.276636 6.7777 4.37994 12.2677 10.3409 12.4344C10.4331 12.4368 10.5248 12.4382 10.6164 12.4382C14.2116 12.4382 17.6623 10.4645 20.8774 6.56811C20.962 6.46577 21.0003 6.34182 21 6.21896C21.0003 6.09583 20.962 5.97188 20.8774 5.86954ZM10.3781 11.3407C5.74342 11.2146 2.20187 7.36846 1.245 6.21896C2.20187 5.06946 5.74314 1.22309 10.3781 1.09695C13.6129 1.0124 16.755 2.7357 19.7364 6.21896C16.7552 9.7025 13.6162 11.4343 10.3781 11.3407Z" fill="#2D2A28"/>
<path d="M10.7737 2.61612C8.78694 2.61612 7.1709 4.23216 7.1709 6.21868C7.1709 8.20548 8.78694 9.82152 10.7737 9.82152C12.7605 9.82152 14.3766 8.20548 14.3766 6.21868C14.3766 4.23216 12.7605 2.61612 10.7737 2.61612ZM10.7737 8.72702C9.39055 8.72702 8.2654 7.60186 8.2654 6.21868C8.2654 4.83578 9.39055 3.71062 10.7737 3.71062C12.1569 3.71062 13.2821 4.83578 13.2821 6.21868C13.2821 7.60159 12.1569 8.72702 10.7737 8.72702Z" fill="#2D2A28"/>
</svg>
