<svg width="14" height="14" viewBox="0 0 14 14" fill="none" xmlns="http://www.w3.org/2000/svg">
<path d="M6.19271 1.10431C6.59219 0.557854 7.40781 0.557853 7.80729 1.10431L9.61595 3.57843C9.74898 3.7604 9.93959 3.8921 10.1569 3.95214L13.1263 4.77276C13.8235 4.96545 14.0918 5.81186 13.6329 6.37104L11.8026 8.60113C11.6494 8.78777 11.569 9.02352 11.5761 9.26486L11.6603 12.137C11.6807 12.8316 11.0038 13.3348 10.3445 13.115L7.31626 12.1054C7.11097 12.037 6.88902 12.037 6.68374 12.1054L3.65552 13.115C2.99623 13.3348 2.31931 12.8316 2.33969 12.137L2.42395 9.26486C2.43103 9.02352 2.35055 8.78777 2.19737 8.60113L0.367105 6.37104C-0.0918247 5.81186 0.176469 4.96545 0.873729 4.77276L3.84313 3.95214C4.06041 3.8921 4.25102 3.7604 4.38405 3.57843L6.19271 1.10431Z" fill="#FFE53E"/>
</svg>
