<svg width="14" height="14" viewBox="0 0 14 14" fill="none" xmlns="http://www.w3.org/2000/svg">
<path d="M6.59635 1.39939C6.7961 1.12616 7.20391 1.12616 7.40364 1.39939L9.21231 3.8735C9.41185 4.14647 9.69777 4.34401 10.0237 4.43408L12.9931 5.25469C13.3417 5.35104 13.4759 5.77424 13.2464 6.05383L11.4161 8.28392C11.1864 8.56388 11.0656 8.91751 11.0763 9.27953L11.1605 12.1516C11.1707 12.499 10.8323 12.7505 10.5026 12.6406L7.47439 11.6311C7.16646 11.5284 6.83354 11.5284 6.52561 11.6311L3.49739 12.6406C3.16775 12.7505 2.82928 12.499 2.83947 12.1516L2.92373 9.27953C2.93435 8.91751 2.81364 8.56388 2.58387 8.28392L0.753604 6.05383C0.524139 5.77424 0.658285 5.35104 1.00692 5.25469L3.97632 4.43408C4.30223 4.34401 4.58815 4.14647 4.78769 3.87351L6.59635 1.39939Z" stroke="#FFE53E"/>
</svg>
