<svg width="18" height="17" viewBox="0 0 18 17" fill="none" xmlns="http://www.w3.org/2000/svg">
<path d="M5.79215 7.59264C5.6259 7.33331 5.65802 7.0972 5.8879 6.8849L6.00894 6.75581C7.11277 5.57858 7.31101 3.81561 6.49617 2.42264C5.66089 0.994716 3.87492 0.158566 2.49124 1.06526C2.3685 1.14569 2.25922 1.22858 2.1692 1.31315C1.40623 2.02991 1 3.00538 1 4.23178C1 5.44657 1.37047 6.75852 2.11183 8.16762C2.85278 9.57691 3.89432 10.9005 5.23624 12.1387C6.24565 13.0585 7.32557 13.8369 8.47557 14.4736C9.62579 15.1103 10.3434 15.5513 11.7917 15.8268C13.24 16.1023 14.6 16.1024 15.96 15.4315C16.2685 15.2793 16.5421 15.0267 16.7806 14.7271C17.8346 13.4032 16.9594 11.5696 15.4747 10.7578C14.0724 9.99091 12.3359 10.2133 11.172 11.3087L10.9293 11.5372C10.6863 11.7379 10.431 11.7613 10.1625 11.608C9.25511 11.1012 8.44366 10.5113 7.72816 9.83914C6.96135 9.1314 6.31615 8.38282 5.79215 7.59264Z" stroke="black"/>
</svg>
