<svg width="34" height="34" viewBox="0 0 34 34" fill="none" xmlns="http://www.w3.org/2000/svg">
<rect width="34" height="34" rx="17" fill="#7F7F7F"/>
<path d="M8.90635 16.123C8.90635 16.123 15.9238 13.1376 18.3576 12.0863C19.2905 11.6659 22.4545 10.3202 22.4545 10.3202C22.4545 10.3202 23.9148 9.7316 23.7931 11.1612C23.7525 11.7499 23.428 13.8103 23.1035 16.0389C22.6167 19.1926 22.0894 22.6406 22.0894 22.6406C22.0894 22.6406 22.0083 23.6078 21.3187 23.776C20.6291 23.9442 19.4933 23.1873 19.2905 23.0191C19.1282 22.893 16.2483 21.0007 15.1936 20.0756C14.9097 19.8234 14.5852 19.3188 15.2342 18.7301C16.6945 17.3425 18.4387 15.6185 19.4933 14.5252C19.9801 14.0206 20.4668 12.8432 18.4387 14.2729C15.5587 16.3333 12.7193 18.2675 12.7193 18.2675C12.7193 18.2675 12.0703 18.688 10.8534 18.3096C9.63645 17.9312 8.21673 17.4266 8.21673 17.4266C8.21673 17.4266 7.24327 16.7958 8.90635 16.123Z" fill="#2C2C2C"/>
</svg>
