<svg width="23" height="23" viewBox="0 0 23 23" fill="none" xmlns="http://www.w3.org/2000/svg">
<path d="M20.125 0H2.875C1.28718 0 0 1.28718 0 2.875V20.125C0 21.7128 1.28718 23 2.875 23H20.125C21.7128 23 23 21.7128 23 20.125V2.875C23 1.28718 21.7128 0 20.125 0Z" fill="#7F7F7F"/>
<path d="M4.85832 11.226C4.85832 11.226 11.0502 8.5918 13.1976 7.66423C14.0208 7.29323 16.8125 6.10593 16.8125 6.10593C16.8125 6.10593 18.101 5.58653 17.9936 6.84798C17.9578 7.36743 17.6715 9.1854 17.3852 11.1518C16.9557 13.9345 16.4904 16.9769 16.4904 16.9769C16.4904 16.9769 16.4188 17.8302 15.8104 17.9786C15.202 18.127 14.1998 17.4592 14.0208 17.3108C13.8776 17.1995 11.3365 15.5299 10.4059 14.7136C10.1554 14.491 9.86907 14.0458 10.4417 13.5264C11.7302 12.302 13.2692 10.7808 14.1998 9.81618C14.6293 9.37093 15.0587 8.33208 13.2692 9.59353C10.7281 11.4116 8.22268 13.1183 8.22268 13.1183C8.22268 13.1183 7.65001 13.4893 6.57629 13.1553C5.50252 12.8215 4.24983 12.3762 4.24983 12.3762C4.24983 12.3762 3.39089 11.8197 4.85832 11.226Z" fill="#2C2C2C"/>
</svg>
