<svg width="22" height="22" viewBox="0 0 22 22" fill="none" xmlns="http://www.w3.org/2000/svg">
<path d="M19.25 0H2.75C1.23122 0 0 1.23122 0 2.75V19.25C0 20.7688 1.23122 22 2.75 22H19.25C20.7688 22 22 20.7688 22 19.25V2.75C22 1.23122 20.7688 0 19.25 0Z" fill="#171717"/>
<path d="M4.64717 10.7381C4.64717 10.7381 10.5698 8.21838 12.6239 7.33113C13.4113 6.97626 16.0816 5.84058 16.0816 5.84058C16.0816 5.84058 17.3141 5.34376 17.2114 6.55037C17.1771 7.04723 16.9033 8.78617 16.6294 10.6671C16.2186 13.3288 15.7735 16.2389 15.7735 16.2389C15.7735 16.2389 15.705 17.0551 15.1231 17.1971C14.5411 17.339 13.5825 16.7003 13.4113 16.5583C13.2743 16.4518 10.8437 14.8548 9.95358 14.074C9.71393 13.8611 9.44007 13.4353 9.98779 12.9384C11.2203 11.7673 12.6924 10.3122 13.5825 9.38952C13.9933 8.96363 14.4041 7.96994 12.6924 9.17655C10.2617 10.9155 7.86526 12.548 7.86526 12.548C7.86526 12.548 7.31748 12.9029 6.29045 12.5835C5.26336 12.2641 4.06514 11.8382 4.06514 11.8382C4.06514 11.8382 3.24355 11.3059 4.64717 10.7381V10.7381Z" fill="white"/>
</svg>
