<svg width="26" height="26" viewBox="0 0 26 26" fill="none" xmlns="http://www.w3.org/2000/svg">
<rect width="26" height="26" rx="6" fill="#D7D7D7"/>
<path d="M6.86341 12.7065C6.86341 12.7065 12.613 10.2332 14.6071 9.36233C15.3715 9.014 17.9638 7.89926 17.9638 7.89926C17.9638 7.89926 19.1602 7.4116 19.0605 8.59596C19.0272 9.08367 18.7614 10.7905 18.4955 12.6368C18.0967 15.2494 17.6646 18.1058 17.6646 18.1058C17.6646 18.1058 17.5982 18.9071 17.0332 19.0464C16.4682 19.1857 15.5376 18.5587 15.3715 18.4194C15.2385 18.3149 12.8789 16.7473 12.0148 15.9809C11.7821 15.7719 11.5163 15.3539 12.048 14.8662C13.2444 13.7167 14.6735 12.2885 15.5376 11.3828C15.9365 10.9647 16.3352 9.98937 14.6735 11.1737C12.3139 12.8807 9.98747 14.4831 9.98747 14.4831C9.98747 14.4831 9.4557 14.8314 8.45867 14.5179C7.4616 14.2044 6.29839 13.7864 6.29839 13.7864C6.29839 13.7864 5.50081 13.2638 6.86341 12.7065Z" fill="white"/>
</svg>
