<svg width="34" height="34" viewBox="0 0 34 34" fill="none" xmlns="http://www.w3.org/2000/svg">
<rect width="34" height="34" rx="17" fill="#7F7F7F"/>
<path fill-rule="evenodd" clip-rule="evenodd" d="M23.7127 20.5492C23.2192 20.1596 22.6918 19.81 22.1727 19.4529C21.1373 18.7399 20.1903 18.6845 19.4177 19.8315C18.9838 20.4755 18.3765 20.5037 17.7414 20.2212C15.9907 19.4429 14.6388 18.2438 13.8469 16.4992C13.4966 15.7274 13.5012 15.0354 14.3208 14.4895C14.7547 14.2008 15.1919 13.8592 15.1569 13.2284C15.1113 12.4059 13.0742 9.6571 12.2698 9.36698C11.9369 9.2469 11.6055 9.25472 11.2668 9.3663C9.38054 9.9882 8.59925 11.5091 9.34748 13.3098C11.5797 18.6824 15.508 22.4225 20.9155 24.7054C21.2238 24.8353 21.5663 24.8873 21.7397 24.934C22.9709 24.9461 24.4131 23.7832 24.8296 22.6292C25.2306 21.5189 24.3831 21.0782 23.7127 20.5492ZM17.6495 9.91779C21.6028 10.5138 23.426 12.3567 23.9294 16.2603C23.9761 16.6209 23.8391 17.1634 24.3638 17.1734C24.9122 17.1837 24.7801 16.6491 24.7847 16.2882C24.8311 12.6117 21.5613 9.20351 17.7638 9.07785C17.4773 9.11827 16.8845 8.88415 16.8475 9.5137C16.8229 9.93814 17.322 9.8684 17.6495 9.91779Z" fill="#2C2C2C"/>
<path fill-rule="evenodd" clip-rule="evenodd" d="M18.4247 10.9889C18.0444 10.944 17.5424 10.7683 17.4536 11.2856C17.3608 11.8285 17.9203 11.7734 18.2798 11.8523C20.7214 12.3872 21.5716 13.2585 21.9736 15.6329C22.0323 15.9791 21.9156 16.5179 22.5157 16.4286C22.9604 16.3622 22.7998 15.9004 22.837 15.6306C22.8567 13.3509 20.8642 11.2761 18.4247 10.9889Z" fill="#2C2C2C"/>
<path fill-rule="evenodd" clip-rule="evenodd" d="M18.6478 12.8529C18.394 12.8591 18.1448 12.886 18.0515 13.1519C17.9114 13.5494 18.2062 13.6442 18.5062 13.6914C19.5078 13.8491 20.0349 14.4281 20.135 15.4073C20.162 15.673 20.334 15.8884 20.5959 15.8581C20.9588 15.8156 20.9916 15.499 20.9805 15.1983C20.9984 14.0982 19.7301 12.8266 18.6478 12.8529Z" fill="#2C2C2C"/>
</svg>
