<svg width="23" height="23" viewBox="0 0 23 23" fill="none" xmlns="http://www.w3.org/2000/svg">
<path d="M20.125 0H2.875C1.28718 0 0 1.28718 0 2.875V20.125C0 21.7128 1.28718 23 2.875 23H20.125C21.7128 23 23 21.7128 23 20.125V2.875C23 1.28718 21.7128 0 20.125 0Z" fill="#7F7F7F"/>
<path fill-rule="evenodd" clip-rule="evenodd" d="M17.5973 14.8727C17.1391 14.5039 16.6495 14.1728 16.1675 13.8346C15.2063 13.1595 14.3271 13.107 13.6099 14.1931C13.2071 14.8029 12.6432 14.8296 12.0537 14.5621C10.4283 13.8251 9.17325 12.6896 8.43808 11.0376C8.11287 10.3067 8.11715 9.65146 8.87805 9.13452C9.28091 8.86114 9.68677 8.53765 9.65432 7.9403C9.61195 7.1614 7.72079 4.55843 6.97397 4.2837C6.66494 4.17 6.35719 4.1774 6.0428 4.28306C4.29163 4.87197 3.5663 6.31215 4.26094 8.01741C6.33327 13.105 9.98021 16.6467 15.0004 18.8084C15.2867 18.9315 15.6046 18.9807 15.7656 19.0249C16.9086 19.0364 18.2475 17.9352 18.6342 16.8424C19.0064 15.791 18.2197 15.3737 17.5973 14.8727ZM11.9684 4.80529C15.6385 5.36967 17.3311 7.11482 17.7985 10.8113C17.8418 11.1528 17.7146 11.6666 18.2018 11.676C18.7109 11.6858 18.5882 11.1796 18.5925 10.8378C18.6355 7.35635 15.5999 4.12891 12.0745 4.00991C11.8085 4.04818 11.2582 3.82649 11.2238 4.42264C11.201 4.82456 11.6643 4.75853 11.9684 4.80529Z" fill="#2C2C2C"/>
<path fill-rule="evenodd" clip-rule="evenodd" d="M12.6884 5.81941C12.3354 5.77689 11.8693 5.61056 11.7868 6.10038C11.7007 6.61449 12.2201 6.56228 12.5539 6.63699C14.8206 7.1436 15.6099 7.96862 15.9831 10.2171C16.0376 10.5449 15.9293 11.0551 16.4864 10.9706C16.8992 10.9077 16.7501 10.4704 16.7846 10.2149C16.8029 8.05618 14.9532 6.09136 12.6884 5.81941Z" fill="#2C2C2C"/>
<path fill-rule="evenodd" clip-rule="evenodd" d="M12.8955 7.58437C12.6598 7.59019 12.4286 7.61569 12.3419 7.86751C12.2119 8.24389 12.4855 8.33362 12.764 8.37836C13.6939 8.52763 14.1832 9.07593 14.2761 10.0032C14.3012 10.2549 14.4609 10.4588 14.7041 10.4301C15.0409 10.3899 15.0714 10.09 15.0611 9.80529C15.0777 8.76353 13.9003 7.55942 12.8955 7.58437Z" fill="#2C2C2C"/>
</svg>
