<svg width="22" height="22" viewBox="0 0 22 22" fill="none" xmlns="http://www.w3.org/2000/svg">
<path d="M19.25 0H2.75C1.23122 0 0 1.23122 0 2.75V19.25C0 20.7688 1.23122 22 2.75 22H19.25C20.7688 22 22 20.7688 22 19.25V2.75C22 1.23122 20.7688 0 19.25 0Z" fill="#171717"/>
<path d="M18.9251 7.35722C19.04 6.97591 18.9251 6.69629 18.3823 6.69629H16.584C16.1264 6.69629 15.9173 6.93819 15.8025 7.20388C15.8025 7.20388 14.8882 9.43349 13.5926 10.8792C13.1744 11.2998 12.9833 11.4327 12.7554 11.4327C12.6414 11.4327 12.4757 11.2998 12.4757 10.9185V7.35722C12.4757 6.89965 12.3437 6.69629 11.9624 6.69629H9.13666C8.85129 6.69629 8.67909 6.90785 8.67909 7.10958C8.67909 7.54254 9.3269 7.64258 9.39332 8.86276V11.5098C9.39332 12.0895 9.28918 12.1953 9.05957 12.1953C8.4503 12.1953 6.96772 9.95748 6.08785 7.39576C5.91646 6.89801 5.74344 6.69711 5.28423 6.69711H3.48677C2.97262 6.69711 2.87012 6.93901 2.87012 7.2047C2.87012 7.68194 3.47939 10.0436 5.70818 13.167C7.19404 15.2999 9.2859 16.4561 11.1916 16.4561C12.3339 16.4561 12.4749 16.1994 12.4749 15.7566V14.1445C12.4749 13.6311 12.584 13.5278 12.9456 13.5278C13.2113 13.5278 13.6689 13.6623 14.7357 14.6898C15.9542 15.9083 16.156 16.4553 16.8407 16.4553H18.6381C19.1515 16.4553 19.4081 16.1986 19.2605 15.6918C19.099 15.1875 18.5168 14.4536 17.7443 13.5852C17.3245 13.0899 16.6972 12.5569 16.5061 12.2904C16.2396 11.9468 16.3167 11.7951 16.5061 11.4901C16.5069 11.4909 18.6972 8.40602 18.9251 7.35722Z" fill="white"/>
</svg>
