<svg width="26" height="26" viewBox="0 0 26 26" fill="none" xmlns="http://www.w3.org/2000/svg">
<rect width="26" height="26" rx="6" fill="#D7D7D7"/>
<path d="M19.5947 9.2539C19.6977 8.9153 19.5947 8.66699 19.108 8.66699H17.4956C17.0853 8.66699 16.8978 8.8818 16.7949 9.11773C16.7949 9.11773 15.9751 11.0976 14.8134 12.3814C14.4384 12.7549 14.2671 12.8729 14.0627 12.8729C13.9605 12.8729 13.812 12.7549 13.812 12.4163V9.2539C13.812 8.84758 13.6936 8.66699 13.3517 8.66699H10.818C10.5622 8.66699 10.4078 8.85486 10.4078 9.03399C10.4078 9.41846 10.9886 9.5073 11.0482 10.5908V12.9413C11.0482 13.4562 10.9548 13.5501 10.7489 13.5501C10.2026 13.5501 8.87328 11.5629 8.08435 9.28812C7.93069 8.84612 7.77555 8.66772 7.3638 8.66772H5.75213C5.29113 8.66772 5.19922 8.88253 5.19922 9.11846C5.19922 9.54225 5.74551 11.6394 7.74393 14.413C9.07621 16.3069 10.9518 17.3337 12.6606 17.3337C13.6848 17.3337 13.8112 17.1057 13.8112 16.7125V15.281C13.8112 14.8251 13.909 14.7334 14.2333 14.7334C14.4715 14.7334 14.8818 14.8528 15.8383 15.7652C16.9309 16.8472 17.1118 17.3329 17.7257 17.3329H19.3374C19.7977 17.3329 20.0278 17.105 19.8955 16.655C19.7506 16.2072 19.2286 15.5555 18.536 14.7843C18.1595 14.3445 17.5971 13.8712 17.4257 13.6346C17.1868 13.3295 17.2559 13.1947 17.4257 12.9239C17.4265 12.9246 19.3903 10.1852 19.5947 9.2539Z" fill="white"/>
</svg>
