<svg width="34" height="34" viewBox="0 0 34 34" fill="none" xmlns="http://www.w3.org/2000/svg">
<rect width="34" height="34" rx="17" fill="#7F7F7F"/>
<path d="M25.8236 12.1161C25.9596 11.6643 25.8236 11.333 25.1804 11.333H23.0497C22.5075 11.333 22.2598 11.6196 22.1237 11.9344C22.1237 11.9344 21.0404 14.5762 19.5053 16.2891C19.0098 16.7875 18.7834 16.9449 18.5133 16.9449C18.3783 16.9449 18.182 16.7875 18.182 16.3357V12.1161C18.182 11.574 18.0256 11.333 17.5738 11.333H14.2257C13.8876 11.333 13.6835 11.5837 13.6835 11.8227C13.6835 12.3357 14.4511 12.4542 14.5298 13.9V17.0362C14.5298 17.7232 14.4064 17.8485 14.1343 17.8485C13.4125 17.8485 11.6558 15.197 10.6133 12.1618C10.4102 11.572 10.2052 11.334 9.66114 11.334H7.53142C6.92223 11.334 6.80078 11.6206 6.80078 11.9354C6.80078 12.5009 7.52267 15.299 10.1635 18.9998C11.924 21.5269 14.4025 22.8969 16.6605 22.8969C18.0139 22.8969 18.181 22.5928 18.181 22.0681V20.158C18.181 19.5498 18.3102 19.4273 18.7387 19.4273C19.0535 19.4273 19.5957 19.5867 20.8597 20.8041C22.3035 22.2479 22.5425 22.8959 23.3538 22.8959H25.4835C26.0917 22.8959 26.3958 22.5918 26.2209 21.9914C26.0295 21.3938 25.3397 20.5243 24.4245 19.4953C23.927 18.9085 23.1837 18.277 22.9574 17.9612C22.6416 17.5541 22.7329 17.3744 22.9574 17.0129C22.9583 17.0139 25.5535 13.3588 25.8236 12.1161Z" fill="#2C2C2C"/>
</svg>
