<svg width="26" height="26" viewBox="0 0 26 26" fill="none" xmlns="http://www.w3.org/2000/svg">
<rect width="26" height="26" rx="6" fill="#D7D7D7"/>
<path fill-rule="evenodd" clip-rule="evenodd" d="M18.8666 16.1009C18.4352 15.7605 17.9743 15.4549 17.5206 15.1428C16.6157 14.5197 15.7881 14.4713 15.1129 15.4737C14.7337 16.0365 14.2029 16.0611 13.6479 15.8142C12.1179 15.1341 10.9364 14.0861 10.2443 12.5615C9.93815 11.8869 9.94218 11.2822 10.6585 10.8051C11.0377 10.5528 11.4198 10.2542 11.3892 9.70293C11.3493 8.98408 9.56906 6.58179 8.86602 6.32824C8.57511 6.2233 8.28541 6.23013 7.98944 6.32765C6.34094 6.87115 5.65813 8.2003 6.31205 9.7741C8.26288 14.4694 11.696 17.7381 16.4219 19.7332C16.6914 19.8468 16.9907 19.8922 17.1423 19.933C18.2182 19.9436 19.4786 18.9273 19.8426 17.9187C20.1931 16.9484 19.4524 16.5633 18.8666 16.1009ZM13.5676 6.80962C17.0226 7.33048 18.616 8.9411 19.0559 12.3526C19.0967 12.6678 18.977 13.1419 19.4356 13.1507C19.9149 13.1596 19.7994 12.6925 19.8034 12.377C19.8439 9.164 16.9863 6.18537 13.6675 6.07555C13.4171 6.11088 12.899 5.90627 12.8667 6.45647C12.8452 6.8274 13.2814 6.76646 13.5676 6.80962Z" fill="white"/>
<path fill-rule="evenodd" clip-rule="evenodd" d="M14.2424 7.74532C13.9101 7.70608 13.4714 7.55258 13.3937 8.00463C13.3126 8.47911 13.8016 8.43093 14.1158 8.49988C16.2496 8.96743 16.9926 9.72885 17.3439 11.804C17.3953 12.1065 17.2933 12.5774 17.8177 12.4994C18.2064 12.4413 18.066 12.0377 18.0985 11.8019C18.1157 9.80965 16.3744 7.99631 14.2424 7.74532Z" fill="white"/>
<path fill-rule="evenodd" clip-rule="evenodd" d="M14.4411 9.37438C14.2193 9.37975 14.0016 9.40329 13.9201 9.63569C13.7976 9.98305 14.0552 10.0659 14.3174 10.1072C15.1927 10.2449 15.6534 10.751 15.7409 11.6067C15.7645 11.839 15.9148 12.0272 16.1437 12.0007C16.4608 11.9636 16.4895 11.6869 16.4798 11.4241C16.4955 10.4626 15.387 9.35136 14.4411 9.37438Z" fill="white"/>
</svg>
