<svg width="22" height="22" viewBox="0 0 22 22" fill="none" xmlns="http://www.w3.org/2000/svg">
<path d="M19.25 0H2.75C1.23122 0 0 1.23122 0 2.75V19.25C0 20.7688 1.23122 22 2.75 22H19.25C20.7688 22 22 20.7688 22 19.25V2.75C22 1.23122 20.7688 0 19.25 0Z" fill="#171717"/>
<path fill-rule="evenodd" clip-rule="evenodd" d="M16.8313 14.2271C16.3931 13.8743 15.9247 13.5576 15.4637 13.2341C14.5443 12.5884 13.7033 12.5382 13.0172 13.5771C12.632 14.1604 12.0926 14.1859 11.5287 13.93C9.97403 13.2251 8.77353 12.139 8.07032 10.5588C7.75924 9.85968 7.76334 9.23289 8.49116 8.73843C8.8765 8.47694 9.26472 8.16751 9.23367 7.59613C9.19314 6.8511 7.38421 4.3613 6.66986 4.09851C6.37427 3.98976 6.0799 3.99683 5.77917 4.0979C4.10415 4.6612 3.41035 6.03877 4.07479 7.66989C6.05702 12.5362 9.5454 15.924 14.3474 17.9917C14.6211 18.1095 14.9253 18.1566 15.0793 18.1988C16.1725 18.2098 17.4532 17.1565 17.8231 16.1112C18.1792 15.1055 17.4266 14.7063 16.8313 14.2271ZM11.4471 4.59743C14.9577 5.13727 16.5767 6.80654 17.0237 10.3424C17.0652 10.6689 16.9435 11.1604 17.4095 11.1694C17.8965 11.1788 17.7791 10.6946 17.7832 10.3676C17.8244 7.03757 14.9208 3.95045 11.5486 3.83663C11.2942 3.87324 10.7678 3.66118 10.7349 4.23142C10.7131 4.61586 11.1563 4.5527 11.4471 4.59743V4.59743Z" fill="white"/>
<path fill-rule="evenodd" clip-rule="evenodd" d="M12.1361 5.56771C11.7984 5.52703 11.3526 5.36794 11.2737 5.83646C11.1913 6.32822 11.6882 6.27828 12.0074 6.34974C14.1756 6.83432 14.9305 7.62348 15.2875 9.77421C15.3397 10.0878 15.2361 10.5758 15.769 10.4949C16.1639 10.4348 16.0212 10.0164 16.0542 9.77209C16.0717 7.70723 14.3024 5.82783 12.1361 5.56771V5.56771Z" fill="white"/>
<path fill-rule="evenodd" clip-rule="evenodd" d="M12.3328 7.25622C12.1074 7.26179 11.8862 7.28619 11.8034 7.52706C11.679 7.88707 11.9407 7.97291 12.2071 8.0157C13.0965 8.15848 13.5646 8.68294 13.6535 9.56989C13.6775 9.81062 13.8303 10.0057 14.0628 9.97823C14.385 9.93979 14.4142 9.65296 14.4043 9.38058C14.4202 8.38412 13.2939 7.23237 12.3328 7.25622V7.25622Z" fill="white"/>
</svg>
