<svg width="34" height="34" viewBox="0 0 34 34" fill="none" xmlns="http://www.w3.org/2000/svg">
<rect width="34" height="34" rx="17" fill="#7F7F7F"/>
<path fill-rule="evenodd" clip-rule="evenodd" d="M28.9469 10.5879C28.6613 9.54471 27.8164 8.72183 26.7415 8.43978C24.798 7.93359 16.9999 7.93359 16.9999 7.93359C16.9999 7.93359 9.20576 7.93359 7.2582 8.43978C6.18731 8.71793 5.34242 9.54091 5.05287 10.5879C4.5332 12.4811 4.5332 16.4335 4.5332 16.4335C4.5332 16.4335 4.5332 20.3861 5.05287 22.2793C5.33842 23.3225 6.18331 24.1454 7.2582 24.4274C9.20576 24.9336 16.9999 24.9336 16.9999 24.9336C16.9999 24.9336 24.798 24.9336 26.7415 24.4274C27.8125 24.1493 28.6573 23.3263 28.9469 22.2793C29.4665 20.3861 29.4665 16.4336 29.4665 16.4336C29.4665 16.4336 29.4665 12.4811 28.9469 10.5879Z" fill="#2C2C2C"/>
<path fill-rule="evenodd" clip-rule="evenodd" d="M14.7324 20.4001L21.5324 16.4334L14.7324 12.4668V20.4001Z" fill="#7F7F7F"/>
</svg>
