<svg width="30" height="21" viewBox="0 0 30 21" fill="none" xmlns="http://www.w3.org/2000/svg">
<path fill-rule="evenodd" clip-rule="evenodd" d="M29.3747 3.3857C29.0312 2.11606 28.0146 1.11458 26.7213 0.771323C24.3828 0.155273 15 0.155273 15 0.155273C15 0.155273 5.62206 0.155273 3.27874 0.771323C1.99023 1.10985 0.973658 2.11144 0.625262 3.3857C-5.88064e-08 5.68975 0 10.5 0 10.5C0 10.5 -5.88064e-08 15.3104 0.625262 17.6145C0.968848 18.8841 1.98542 19.8856 3.27874 20.2289C5.62206 20.8449 15 20.8449 15 20.8449C15 20.8449 24.3828 20.8449 26.7213 20.2289C28.0099 19.8904 29.0263 18.8888 29.3747 17.6145C30 15.3104 30 10.5002 30 10.5002C30 10.5002 30 5.68975 29.3747 3.3857Z" fill="#7F7F7F"/>
<path fill-rule="evenodd" clip-rule="evenodd" d="M12.002 14.9347L19.7954 10.5005L12.002 6.06641V14.9347Z" fill="#2C2C2C"/>
</svg>
